<?xml version="1.0" encoding="UTF-8"?>
<svg version="1.1" xmlns="http://www.w3.org/2000/svg" width="500" height="500">
<path d="M0 0 C165 0 330 0 500 0 C500 165 500 330 500 500 C335 500 170 500 0 500 C0 335 0 170 0 0 Z " fill="#FEFEFE" transform="translate(0,0)"/>
<path d="M0 0 C3.72228622 3.63149875 4.82315257 6.53195495 5.18774414 11.62011719 C5.27440561 18.88513608 4.34244422 25.25592174 2.4375 32.25 C2.03640015 33.78865723 2.03640015 33.78865723 1.62719727 35.35839844 C-0.57790942 43.71043887 -3.00084385 51.99904232 -5.46313477 60.27832031 C-7.30123456 66.48615612 -8.97646775 72.70800144 -10.5 79 C-14.08280591 93.71329048 -18.25572203 108.30451902 -23.1875 122.625 C-23.41300537 123.29297607 -23.63851074 123.96095215 -23.87084961 124.64916992 C-26.15633699 131.07559848 -29.25647077 136.2144921 -35 140 C-44.30554281 144.3975561 -53.5605398 144.11880367 -63.66796875 144.02734375 C-65.67291563 144.01793555 -67.67786264 144.00853891 -69.68281269 143.99983311 C-74.60460437 143.97695775 -79.52631086 143.94314847 -84.44799805 143.90405273 C-87.21942624 143.8824485 -89.99079127 143.86618645 -92.76228333 143.85560608 C-95.36770816 143.84525687 -97.97311588 143.82667217 -100.57841492 143.79905701 C-101.75676407 143.79567825 -102.93511322 143.7922995 -104.14916992 143.78881836 C-105.70301643 143.77763222 -105.70301643 143.77763222 -107.28825378 143.76622009 C-110.0313465 144.00270238 -111.66324015 144.58906891 -114 146 C-114.00364563 146.90265091 -114.00729126 147.80530182 -114.01104736 148.73530579 C-114.04906584 157.28217526 -114.10607464 165.82866852 -114.18390274 174.3752718 C-114.22324994 178.76818043 -114.25550046 183.16089243 -114.27099609 187.55395508 C-114.28624742 191.80119176 -114.32084088 196.0478874 -114.36830902 200.29488182 C-114.38303609 201.90736347 -114.39103598 203.51992241 -114.39188385 205.13247108 C-114.41317411 225.33848965 -114.41317411 225.33848965 -120.3760376 232.69844055 C-126.07770874 237.88697522 -132.61446259 238.56351112 -140.01953125 238.453125 C-145.6066825 237.60370227 -149.05547386 234.31240946 -152.58984375 230.109375 C-156.28339082 224.58440155 -156.29196238 219.64459321 -156.2746582 213.19604492 C-156.27976913 212.21330093 -156.28488007 211.23055695 -156.29014587 210.21803284 C-156.30403557 206.97211602 -156.30308529 203.72641174 -156.30078125 200.48046875 C-156.30466903 198.21991395 -156.30900386 195.95935989 -156.31376648 193.69880676 C-156.32122773 188.96023186 -156.32093844 184.22173146 -156.31567383 179.4831543 C-156.30988484 173.42046262 -156.32679708 167.358077 -156.3500185 161.29543591 C-156.36477569 156.62590257 -156.36562473 151.95644256 -156.36250877 147.28689003 C-156.36302116 145.05225329 -156.36824344 142.81761235 -156.37832069 140.58299828 C-156.39070353 137.45251172 -156.38388157 134.32261629 -156.37231445 131.19213867 C-156.37995819 130.27498077 -156.38760193 129.35782288 -156.39547729 128.41287231 C-156.34332258 122.00338353 -155.51456708 116.24029024 -151.45703125 111.01171875 C-150.91433594 110.57472656 -150.37164062 110.13773437 -149.8125 109.6875 C-149.28269531 109.23761719 -148.75289063 108.78773438 -148.20703125 108.32421875 C-140.61271815 103.76763089 -133.63604787 103.53507192 -124.96875 103.48828125 C-123.73709106 103.47033005 -122.50543213 103.45237885 -121.2364502 103.43388367 C-117.32433436 103.37994539 -113.41233942 103.34593674 -109.5 103.3125 C-106.83849607 103.28093107 -104.1770777 103.24482169 -101.515625 103.20898438 C-95.01052509 103.12422813 -88.50540922 103.05580855 -82 103 C-81.81993408 101.42424194 -81.81993408 101.42424194 -81.63623047 99.81665039 C-72.96473768 24.75232224 -72.96473768 24.75232224 -51 7 C-36.97892919 -2.83086574 -15.92261478 -9.97989446 0 0 Z " fill="#040404" transform="translate(449,179)"/>
<path d="M0 0 C14.47305141 7.40656569 23.95927211 19.98710428 29.01098633 35.28125 C34.19404361 52.42758663 37.19143932 70.41529022 38.30541992 88.26611328 C38.53247213 95.46788546 38.53247213 95.46788546 41.9375 101.5625 C43.53634783 101.66449183 45.13961343 101.6981939 46.74169922 101.7043457 C47.76721893 101.71138016 48.79273865 101.71841461 49.84933472 101.72566223 C51.52879684 101.73190865 51.52879684 101.73190865 53.2421875 101.73828125 C55.60417536 101.76150133 57.96615454 101.78561951 60.328125 101.81054688 C64.0583254 101.84551139 67.78821121 101.874912 71.51855469 101.88842773 C75.11432504 101.90401356 78.70916607 101.94431831 82.3046875 101.98828125 C83.95378616 101.98541862 83.95378616 101.98541862 85.63619995 101.98249817 C93.45488904 102.10447779 101.7823907 103.00123494 107.9447937 108.28291321 C113.79813092 114.51028925 114.23608575 121.3036541 114.22802734 129.47998047 C114.23474457 130.46287048 114.24146179 131.4457605 114.24838257 132.45843506 C114.26733841 135.69890434 114.27128546 138.93916627 114.2734375 142.1796875 C114.2798667 144.43881311 114.28659516 146.69793789 114.29360962 148.95706177 C114.30557607 153.68965587 114.30929105 158.422177 114.30810547 163.15478516 C114.30790223 169.20967561 114.33521281 175.26409697 114.36964989 181.31887627 C114.39192006 185.98412208 114.39594298 190.64925497 114.39488602 195.31454849 C114.39724146 197.54640445 114.40606176 199.77826354 114.42155075 202.01006699 C114.44121403 205.13578636 114.43537099 208.26049373 114.42333984 211.38623047 C114.43457886 212.30181732 114.44581787 213.21740417 114.45739746 214.16073608 C114.39376151 220.68873018 113.09755341 226.23029576 108.49017906 231.08866692 C102.52078122 236.27436272 97.98485788 237.07716917 90.20703125 236.9375 C85.46426648 236.39352698 82.3269613 234.91021917 78.9375 231.5625 C74.83544307 226.08109644 73.81253921 221.11530758 73.76391602 214.38476562 C73.757229 213.65762863 73.75054199 212.93049164 73.74365234 212.18132019 C73.72961097 210.60333424 73.71771401 209.02532808 73.70770454 207.4473114 C73.69128957 204.95100535 73.66805298 202.45484958 73.64280701 199.95861816 C73.57203443 192.86164838 73.51183869 185.76461839 73.46069336 178.66748047 C73.4289301 174.32620381 73.38766553 169.98510197 73.34049797 165.64396667 C73.32446669 163.98857256 73.31215033 162.33313821 73.30359077 160.6776886 C73.29145782 158.3650228 73.26731837 156.0527695 73.24047852 153.74023438 C73.22501732 151.76524963 73.22501732 151.76524963 73.20924377 149.75036621 C73.18224751 146.40742699 73.18224751 146.40742699 70.9375 143.5625 C68.05191124 143.10408008 68.05191124 143.10408008 64.61108398 143.17773438 C63.96200577 143.1723616 63.31292755 143.16698883 62.6441803 143.16145325 C61.23208534 143.15165874 59.81993007 143.14873616 58.40780449 143.15180969 C56.16595205 143.15628522 53.92489033 143.14229192 51.68312073 143.12341309 C46.91376037 143.08657058 42.14448165 143.07293283 37.375 143.0625 C31.8704472 143.05039107 26.36627672 143.02858295 20.86189461 142.98249817 C18.66562104 142.96902319 16.46984233 142.97308366 14.27354431 142.97790527 C4.47048698 142.94049394 -4.13387281 142.3544393 -11.5078125 135.3203125 C-18.1297365 127.8332125 -20.00712307 118.37301772 -22.44189453 108.93994141 C-23.41362209 105.21740682 -24.45973108 101.51633734 -25.5 97.8125 C-32.55573024 72.45233213 -39.43349947 47.03758466 -46.0625 21.5625 C-46.33187378 20.5401123 -46.33187378 20.5401123 -46.60668945 19.49707031 C-47.92264232 13.91184777 -47.90121722 8.27099804 -45.375 3.125 C-33.57411442 -9.95165699 -14.66509775 -7.01516348 0 0 Z " fill="#020202" transform="translate(93.0625,180.4375)"/>
<path d="M0 0 C0.85912994 -0.0065712 1.71825989 -0.0131424 2.60342407 -0.01991272 C5.44590347 -0.03961542 8.28832997 -0.05130479 11.13085938 -0.0612793 C12.10514389 -0.06535482 13.07942841 -0.06943035 14.08323669 -0.07362938 C19.24526761 -0.09448237 24.40727204 -0.10878454 29.56933594 -0.11816406 C34.87729888 -0.12919575 40.18483884 -0.16356042 45.49265289 -0.20333576 C49.59359464 -0.22960588 53.69443746 -0.23786535 57.79545593 -0.24144554 C59.75049174 -0.24628872 61.7055238 -0.2578372 63.66047668 -0.27648354 C77.3216194 -0.39863067 89.54971112 -0.08033951 100.50585938 9.1887207 C110.62681951 19.41008719 112.67554773 30.83118961 112.84960938 44.67700195 C112.90568359 46.36889648 112.90568359 46.36889648 112.96289062 48.0949707 C113.04962353 56.23822639 113.04962353 56.23822639 110.48632812 60.4230957 C106.47936005 62.75659592 103.46940849 62.88424021 98.91210938 62.73950195 C98.15736328 62.75045898 97.40261719 62.76141602 96.625 62.77270508 C93.2288147 62.72782157 90.86735542 62.41972389 87.95898438 60.62231445 C85.91934558 57.26227791 86.07404187 54.28499256 86.28710938 50.48950195 C86.38067388 48.04997859 86.44221027 45.61871635 86.47460938 43.17700195 C85.41502168 41.89377648 85.41502168 41.89377648 82.97460938 42.05200195 C80.53419707 41.89377648 80.53419707 41.89377648 79.47460938 43.17700195 C79.48215413 46.30430243 79.55272087 49.41820159 79.68945312 52.54223633 C79.75202016 55.45160324 79.6911132 57.72985063 78.41184998 60.37194824 C75.5982404 62.99357222 72.8740851 62.73722681 69.22094727 62.69458008 C68.48566299 62.70158936 67.75037872 62.70859863 66.99281311 62.71582031 C64.56058048 62.73343509 62.12951023 62.72176499 59.69726562 62.70825195 C58.00719479 62.71094618 56.31712546 62.71482802 54.62705994 62.71984863 C51.08366143 62.72574861 47.54066611 62.71716604 43.99731445 62.69848633 C39.45628484 62.67571357 34.9162017 62.68880554 30.37520695 62.71277618 C26.88444397 62.72723577 23.39390506 62.72262721 19.9031353 62.71226501 C18.22899705 62.70959725 16.55483842 62.71286927 14.88072395 62.72218323 C12.53915742 62.73234995 10.19911883 62.71684748 7.85766602 62.69458008 C6.82032318 62.70672546 6.82032318 62.70672546 5.76202393 62.71911621 C2.39564741 62.65984669 0.72901892 62.37681669 -1.95271301 60.27056885 C-3.67392832 57.97926682 -4.04913136 56.89355763 -4.13476562 54.06762695 C-4.16699219 53.31352539 -4.19921875 52.55942383 -4.23242188 51.7824707 C-4.24660156 51.00516602 -4.26078125 50.22786133 -4.27539062 49.42700195 C-4.30503906 48.63422852 -4.3346875 47.84145508 -4.36523438 47.0246582 C-4.43566849 45.07598102 -4.48282545 43.126487 -4.52539062 41.17700195 C-7.00039062 41.67200195 -7.00039062 41.67200195 -9.52539062 42.17700195 C-9.61626953 43.98297852 -9.61626953 43.98297852 -9.70898438 45.82543945 C-9.79338794 47.40097272 -9.87803604 48.97649291 -9.96289062 50.55200195 C-10.00220703 51.34606445 -10.04152344 52.14012695 -10.08203125 52.95825195 C-10.41210938 58.95043945 -10.41210938 58.95043945 -11.52539062 61.17700195 C-16.06317908 62.75326659 -20.90870876 62.36114857 -25.65039062 62.36450195 C-27.02904297 62.38287109 -27.02904297 62.38287109 -28.43554688 62.40161133 C-29.75232422 62.40451172 -29.75232422 62.40451172 -31.09570312 62.4074707 C-31.89766113 62.41157959 -32.69961914 62.41568848 -33.52587891 62.41992188 C-35.52539062 62.17700195 -35.52539062 62.17700195 -37.52539062 60.17700195 C-37.95058987 56.04649498 -37.8969764 51.90868947 -37.89599609 47.75805664 C-37.90031687 45.71192842 -37.93646849 43.66805299 -37.97460938 41.62231445 C-38.01188071 28.97490728 -34.67641592 18.73184985 -25.86523438 9.4230957 C-18.07935823 2.34663879 -10.35315721 0.03443958 0 0 Z " fill="#020202" transform="translate(213.525390625,153.822998046875)"/>
<path d="M0 0 C0.83757481 -0.00467997 1.67514962 -0.00935994 2.53810549 -0.01418173 C5.35494939 -0.02618273 8.17131135 -0.01665466 10.98815918 -0.00723267 C13.00341578 -0.0112961 15.01867016 -0.01663669 17.03392029 -0.02316284 C22.51522952 -0.03686936 27.99636983 -0.03152402 33.47768211 -0.02202559 C39.20582927 -0.01444625 44.93396167 -0.02146978 50.66210938 -0.02618408 C60.28270065 -0.03164667 69.90322291 -0.0244368 79.52380371 -0.01016235 C90.65682459 0.00616509 101.78968066 0.00087694 112.92269754 -0.01564157 C122.47008633 -0.02924208 132.01742542 -0.03118312 141.56482077 -0.02332556 C147.2719655 -0.01864115 152.97903269 -0.01804526 158.68617249 -0.02793503 C164.05089114 -0.03658155 169.41539668 -0.03062519 174.78009224 -0.01325226 C176.7526012 -0.00927502 178.725128 -0.01044249 180.69762993 -0.01704025 C183.38321866 -0.02519707 186.06811773 -0.01500555 188.75366211 0 C189.54052163 -0.00669217 190.32738114 -0.01338433 191.13808489 -0.02027929 C196.38996955 0.03692716 196.38996955 0.03692716 198.86125946 1.78317833 C200.15241086 3.81451353 200.25005795 5.10609347 200.2401123 7.50595093 C200.23914551 8.6893103 200.23914551 8.6893103 200.23815918 9.89657593 C200.2220459 10.71641968 200.20593262 11.53626343 200.18933105 12.38095093 C200.19255371 13.20079468 200.19577637 14.02063843 200.19909668 14.86532593 C200.14414472 20.97998043 200.14414472 20.97998043 197.87683105 24.38095093 C195.10832328 24.67964145 192.56260424 24.78077503 189.79125977 24.75517273 C188.52287018 24.76113434 188.52287018 24.76113434 187.22885656 24.76721638 C184.37892479 24.77688554 181.52948373 24.76499355 178.67956543 24.75326538 C176.64313063 24.75569182 174.60669703 24.75940971 172.57026672 24.764328 C167.02697604 24.77376082 161.48386118 24.76429151 155.94058418 24.75099587 C150.1505746 24.73971004 144.36057405 24.74378665 138.57055664 24.7457428 C128.84563308 24.74662668 119.1207791 24.73552562 109.39587402 24.71713257 C98.13848152 24.69596352 86.88119101 24.69245451 75.62378263 24.69869453 C64.81263597 24.7043813 54.00152537 24.69875064 43.19038391 24.68752098 C38.58115474 24.68286587 33.97194756 24.68200507 29.36271667 24.68410683 C23.93895454 24.68598494 18.51529679 24.6779227 13.09155846 24.66204643 C11.09605529 24.65778933 9.10054156 24.65696254 7.10503578 24.65973663 C4.39070853 24.66293861 1.6766971 24.65392708 -1.03759766 24.64164734 C-1.83583403 24.64542666 -2.63407041 24.64920599 -3.45649576 24.65309983 C-8.89484011 24.60927976 -8.89484011 24.60927976 -11.12316895 22.38095093 C-11.56943678 19.25548937 -11.44727197 16.09715253 -11.43566895 12.94345093 C-11.45178223 12.07140015 -11.46789551 11.19934937 -11.48449707 10.3008728 C-11.4851416 9.46233765 -11.48578613 8.62380249 -11.4864502 7.75985718 C-11.48943115 6.99230103 -11.49241211 6.22474487 -11.4954834 5.43392944 C-10.38419992 -0.69379696 -5.1473319 -0.04377757 0 0 Z " fill="#010101" transform="translate(157.1231689453125,228.61904907226563)"/>
<path d="M0 0 C7.28063582 5.01554912 8.37371046 15.12152436 10.3125 23.25 C11.99722708 30.15244293 13.81865027 36.9931595 15.8125 43.8125 C18.18249727 51.93566178 20.3387697 60.10450332 22.42565918 68.30432129 C29.69514109 105.61737096 29.69514109 105.61737096 52.03100586 134.25024414 C64.53322846 141.61834128 78.41287454 140.56981048 92.4375 140.5625 C95.71245629 140.5661166 98.98688746 140.57568325 102.26173401 140.60325623 C104.28619243 140.61995658 106.31082471 140.62299009 108.33531189 140.61024475 C113.6218602 140.64985945 117.47586531 140.94007083 122 144 C124.51336583 147.77004874 124.14110665 149.51214012 123.54296875 153.83984375 C122.77909821 156.87883951 121.56381313 158.24195671 119 160 C116.23845264 160.86107243 113.74891533 161.1261357 110.86499023 161.12939453 C110.05992538 161.13254669 109.25486053 161.13569885 108.42539978 161.13894653 C107.1300808 161.13591019 107.1300808 161.13591019 105.80859375 161.1328125 C104.90810806 161.13376923 104.00762238 161.13472595 103.07984924 161.13571167 C101.17261688 161.13639182 99.2653822 161.13454903 97.3581543 161.13037109 C94.47243886 161.12506425 91.5868822 161.13029893 88.70117188 161.13671875 C67.27243357 161.14671436 46.34720322 159.63813989 29.83203125 143.9921875 C19.35396126 132.59812418 13.97173025 119.26922206 10 104.5 C9.3179291 102.03509515 8.63563547 99.57025192 7.953125 97.10546875 C7.62376953 95.90196777 7.29441406 94.6984668 6.95507812 93.45849609 C5.84295023 89.43129678 4.67887273 85.4208616 3.50732422 81.41064453 C1.04904282 72.97704341 -1.12016735 64.51929163 -3.078125 55.95703125 C-4.96974609 47.73007582 -7.24757079 39.59784769 -9.5859375 31.48828125 C-9.86066895 30.51979248 -10.13540039 29.55130371 -10.41845703 28.5534668 C-10.95902024 26.64975108 -11.50897408 24.74866812 -12.06982422 22.85083008 C-13.64413153 17.27283525 -14.86134021 11.81291902 -14 6 C-10.42096538 0.27354461 -6.65948369 -1.08856945 0 0 Z " fill="#050505" transform="translate(26,199)"/>
<path d="M0 0 C3.56093629 0.32433575 6.36990193 1.3512297 9.01074219 3.89501953 C12.04387395 9.06429841 10.20633877 16.77816944 8.890625 22.30078125 C8.37848661 24.20431601 7.85232322 26.10413049 7.3125 28 C6.93351562 29.39508789 6.93351562 29.39508789 6.546875 30.81835938 C5.43474475 34.88597578 4.27967506 38.94009727 3.10302734 42.98950195 C0.77477574 51.0237295 -1.32938336 59.09656341 -3.31555176 67.22103882 C-6.38546712 79.75501836 -9.62833419 92.22026112 -13.31884766 104.58789062 C-13.8838721 106.50549527 -14.41818747 108.43208001 -14.94921875 110.359375 C-20.42953746 129.69079459 -30.4254082 144.3515726 -47.9296875 154.40625 C-62.77227175 161.95709087 -78.8860528 162.18240933 -95.17138672 162.07861328 C-98.22537364 162.06229766 -101.27808024 162.07867552 -104.33203125 162.09765625 C-106.2890654 162.09567743 -108.24609876 162.09184127 -110.203125 162.0859375 C-111.10830872 162.09201019 -112.01349243 162.09808289 -112.94610596 162.1043396 C-117.76490786 162.0504556 -121.02390977 161.82166417 -124.9375 158.6875 C-127.23958825 155.72767225 -127.30156455 152.45938833 -127.59375 148.78515625 C-126.50497302 145.30495841 -124.02026362 143.40351838 -120.9375 141.6875 C-117.54561586 140.99035542 -114.23425943 141.03646264 -110.78125 141.0859375 C-109.31226257 141.07392807 -109.31226257 141.07392807 -107.81359863 141.06167603 C-104.68781002 141.03866214 -101.56332254 141.04802413 -98.4375 141.0625 C-71.73146582 141.71458888 -71.73146582 141.71458888 -48.72265625 129.68359375 C-40.80673742 121.44337284 -37.46275848 111.07187377 -34.4375 100.25 C-34.14053223 99.21085449 -33.84356445 98.17170898 -33.53759766 97.10107422 C-31.44794839 89.71343668 -29.52889532 82.29031116 -27.70654297 74.83276367 C-26.23626311 68.82000429 -24.63207677 62.85654314 -22.95263672 56.89916992 C-21.37290961 51.28595427 -19.85091573 45.65881584 -18.34667969 40.02490234 C-17.16069839 35.58989279 -15.96097878 31.15866732 -14.75878906 26.72802734 C-14.24011471 24.80782212 -13.72584944 22.88641556 -13.21777344 20.96337891 C-12.59706638 18.61721592 -11.95773795 16.27701301 -11.3125 13.9375 C-10.96960938 12.66390625 -10.62671875 11.3903125 -10.2734375 10.078125 C-8.15474341 4.70085462 -5.99982427 1.04758836 0 0 Z " fill="#050505" transform="translate(477.9375,198.3125)"/>
<path d="M0 0 C7.94297649 4.68290266 12.64376006 10.87171007 16.55859375 19.07421875 C18.73811611 29.37741538 17.15478442 38.46915943 11.9609375 47.578125 C7.17658144 54.60139978 0.41207794 59.10170335 -7.75390625 61.32421875 C-19.76890874 62.59246901 -27.6782547 60.50065919 -37.06640625 53.13671875 C-41.32780612 49.19384776 -43.56403188 44.63488575 -45.75390625 39.32421875 C-46.18703125 38.33421875 -46.62015625 37.34421875 -47.06640625 36.32421875 C-48.97338641 28.00285077 -47.92141958 20.78187418 -43.75390625 13.32421875 C-33.40798418 -0.895295 -16.86193124 -7.89105157 0 0 Z " fill="#040404" transform="translate(95.75390625,101.67578125)"/>
<path d="M0 0 C6.49380847 4.42877738 12.464667 10.47687627 14.53125 18.2265625 C16.09446565 28.65802079 16.07361267 37.96387857 9.9375 46.9375 C9.31875 47.865625 8.7 48.79375 8.0625 49.75 C0.98110523 57.03967109 -6.67525176 60.22848774 -16.8125 60.5 C-25.58530273 60.48064973 -32.55742457 57.9111237 -39.21484375 52.0390625 C-46.42565715 44.3251691 -49.41207297 36.24784428 -49.2734375 25.80859375 C-48.63303243 17.09196912 -44.4654898 9.20115468 -38.2109375 3.14453125 C-27.37133928 -5.60056293 -12.21804291 -6.90688586 0 0 Z " fill="#040404" transform="translate(436.0625,103.0625)"/>
<path d="M0 0 C5.07074518 4.53250966 9.52465264 11.87835009 10.015625 18.6953125 C10.15975743 28.85664856 8.86469443 37.18868455 1.8125 44.875 C-4.22156711 50.55412198 -11.89115084 52.88970318 -20.0625 53.375 C-28.21301538 53.06743338 -35.7080862 49.66677696 -41.6875 44.1875 C-48.60004048 36.43969421 -49.87870981 28.58541841 -49.5703125 18.3671875 C-49.06183205 13.72860055 -47.94056988 10.60579564 -45.1875 6.875 C-44.76339844 6.26269531 -44.33929688 5.65039062 -43.90234375 5.01953125 C-32.98842814 -9.23848106 -14.04956036 -9.36637357 0 0 Z " fill="#040404" transform="translate(271.1875,90.125)"/>
</svg>
