<?xml version="1.0" encoding="UTF-8"?>
<svg version="1.1" xmlns="http://www.w3.org/2000/svg" width="500" height="500">
<path d="M0 0 C165 0 330 0 500 0 C500 165 500 330 500 500 C335 500 170 500 0 500 C0 335 0 170 0 0 Z " fill="#000000" transform="translate(0,0)"/>
<path d="M0 0 C4.33012254 3.14146145 7.07866613 6.41901751 9.1875 11.3125 C10.17681822 18.66711626 8.41457055 25.42591218 6.375 32.4375 C5.7329826 34.73044346 5.09106224 37.0234141 4.44921875 39.31640625 C4.09134277 40.57727051 3.7334668 41.83813477 3.36474609 43.13720703 C2.0560957 47.75990174 0.78671062 52.39313729 -0.48046875 57.02734375 C-2.59831372 64.77026046 -4.72625765 72.51030134 -6.86325073 80.24795532 C-7.87627539 83.91658079 -8.88839867 87.58542369 -9.89306641 91.25634766 C-21.7924394 134.72768564 -21.7924394 134.72768564 -29.58203125 140.66015625 C-38.99821368 146.01069576 -50.68453742 145.61276462 -61.16015625 145.65625 C-62.50729004 145.66992144 -63.85441289 145.68471295 -65.20152283 145.70056152 C-70.14727588 145.75639252 -75.09313108 145.79233584 -80.0390625 145.82818604 C-84.24883094 145.85940204 -88.45837757 145.89849757 -92.66796684 145.94844055 C-94.63446034 145.96848804 -96.601063 145.97669307 -98.56764221 145.98474121 C-99.75325241 145.99815552 -100.93886261 146.01156982 -102.16040039 146.02539062 C-103.72945885 146.03632751 -103.72945885 146.03632751 -105.33021545 146.04748535 C-107.98703816 146.06834135 -107.98703816 146.06834135 -109.8125 148.3125 C-110.12482835 151.40663278 -110.12482835 151.40663278 -110.08374023 155.09790039 C-110.09158035 156.14466949 -110.09158035 156.14466949 -110.09957886 157.21258545 C-110.10983334 158.73109242 -110.11560178 160.24963467 -110.11746025 161.76817513 C-110.12112075 164.17792767 -110.13784225 166.58726742 -110.15821838 168.99693298 C-110.21363381 175.84935794 -110.24418996 182.70184606 -110.26879883 189.55444336 C-110.28475724 193.74550637 -110.3150727 197.93628202 -110.35356331 202.12719536 C-110.3651521 203.71901818 -110.37114312 205.31089264 -110.37124443 206.90275764 C-110.37280005 224.85642422 -110.37280005 224.85642422 -115.625 233.1875 C-120.11514794 237.549358 -124.52638739 238.74313907 -130.6875 238.75 C-136.53207724 238.60820119 -141.20657041 238.09469911 -145.8125 234.3125 C-150.40051976 228.66570645 -150.9749168 223.86285189 -151.36230469 216.79711914 C-151.40427349 216.05106194 -151.44624229 215.30500475 -151.48948288 214.53633976 C-151.95565983 205.54697999 -151.99623069 196.55806781 -152.015625 187.55859375 C-152.01845238 186.65743395 -152.02127975 185.75627415 -152.02419281 184.82780647 C-152.03901703 180.07880503 -152.04835756 175.32983276 -152.05273438 170.58081055 C-152.05826273 165.70224201 -152.08242932 160.82394639 -152.11070633 155.94546413 C-152.12935466 152.16125185 -152.134539 148.37710598 -152.13607025 144.59285164 C-152.1390812 142.79361506 -152.14705658 140.99437921 -152.16025543 139.19518852 C-152.17739845 136.68386653 -152.17541834 134.17322272 -152.16894531 131.66186523 C-152.1781601 130.93187317 -152.18737488 130.2018811 -152.1968689 129.44976807 C-152.14821773 123.39392894 -150.91824983 117.84116193 -146.9453125 113.0703125 C-146.28273438 112.53148437 -145.62015625 111.99265625 -144.9375 111.4375 C-144.28007812 110.88320313 -143.62265625 110.32890625 -142.9453125 109.7578125 C-138.8523896 106.98422006 -135.24808847 106.06343909 -130.33544922 106.00952148 C-129.26438934 105.99287949 -128.19332947 105.97623749 -127.08981323 105.95909119 C-125.94384674 105.95067703 -124.79788025 105.94226288 -123.6171875 105.93359375 C-122.43279083 105.91659927 -121.24839417 105.8996048 -120.02810669 105.88209534 C-116.24795849 105.82900713 -112.46782093 105.78868258 -108.6875 105.75 C-104.90009348 105.70607204 -101.1127719 105.65938029 -97.32546997 105.60719299 C-94.96947612 105.57523919 -92.61340718 105.54834811 -90.2572937 105.52696228 C-88.66016037 105.50672752 -88.66016037 105.50672752 -87.03076172 105.48608398 C-86.09320038 105.47657211 -85.15563904 105.46706024 -84.18966675 105.45726013 C-81.66298758 105.40598407 -81.66298758 105.40598407 -78.8125 104.3125 C-76.52020468 97.60293486 -76.00700104 90.50138403 -75.18170166 83.48910522 C-69.63064017 36.85311286 -69.63064017 36.85311286 -56.8125 19.3125 C-56.13960937 18.36890625 -56.13960937 18.36890625 -55.453125 17.40625 C-44.07168079 2.8277709 -17.95084929 -8.26949237 0 0 Z " fill="#FCFCFC" transform="translate(443.8125,164.6875)"/>
<path d="M0 0 C19.03090831 12.69633455 24.90099468 30.75208678 30 52 C30.30808594 53.24136719 30.61617188 54.48273438 30.93359375 55.76171875 C33.12622028 65.54333246 33.98913963 75.48620778 34.91088867 85.45556641 C35.02408447 86.62909668 35.13728027 87.80262695 35.25390625 89.01171875 C35.35002197 90.06834717 35.4461377 91.12497559 35.54516602 92.21362305 C35.98730225 94.92221178 36.46729932 96.7319441 38 99 C40.94966813 99.98322271 42.87996946 100.12978125 45.95532227 100.1418457 C46.96389786 100.14888016 47.97247345 100.15591461 49.01161194 100.16316223 C50.10219406 100.16732651 51.19277618 100.17149078 52.31640625 100.17578125 C54.63086835 100.19899179 56.94532149 100.22310961 59.25976562 100.24804688 C62.90443811 100.2830612 66.54878384 100.31244928 70.19360352 100.32592773 C73.71410772 100.34149141 77.2336572 100.38176894 80.75390625 100.42578125 C81.83031876 100.42387283 82.90673126 100.42196442 84.01576233 100.41999817 C91.41192432 100.53834168 98.71963877 101.52473032 104.65138245 106.34077454 C110.26550313 112.46737755 110.29851978 119.92327256 110.29052734 127.73974609 C110.29724457 128.69191513 110.30396179 129.64408417 110.31088257 130.62510681 C110.32980682 133.75793748 110.33378381 136.89055331 110.3359375 140.0234375 C110.34236874 142.21147752 110.34909735 144.39951669 110.35610962 146.58755493 C110.36806805 151.16874179 110.37179186 155.74985332 110.37060547 160.33105469 C110.37040224 166.18740689 110.39771538 172.04327405 110.43214989 177.89951134 C110.45443765 182.41724852 110.45844244 186.93486926 110.45738602 191.45265579 C110.45973871 193.61111753 110.46854345 195.76958264 110.48405075 197.92798996 C110.50375053 200.95282294 110.49785695 203.97661338 110.48583984 207.00146484 C110.49707886 207.88383316 110.50831787 208.76620148 110.51989746 209.67530823 C110.44990631 216.64404905 108.75976346 222.78609825 104.1484375 228.15625 C103.56320313 228.5996875 102.97796875 229.043125 102.375 229.5 C101.78460938 229.9640625 101.19421875 230.428125 100.5859375 230.90625 C95.30953646 234.54514727 87.17715792 234.01394744 81 233 C75.47051339 230.40533389 72.71342569 226.42468982 70.64253235 220.73989868 C69.32526796 215.1227948 69.57777205 209.28391484 69.58930969 203.54135704 C69.59381952 201.09907108 69.57970307 198.65749746 69.56091309 196.21528625 C69.51807756 190.15798429 69.50685429 184.1007009 69.49468994 178.04327393 C69.48317206 172.90689068 69.45966718 167.77083738 69.41999817 162.63459206 C69.40641609 160.22864105 69.41059847 157.82313439 69.41540527 155.41716003 C69.40606884 153.94696479 69.39590108 152.47677451 69.38476562 151.0065918 C69.38271118 149.72278122 69.38065674 148.43897064 69.37854004 147.11625671 C69.22093317 144.08304317 69.22093317 144.08304317 67.87171936 142.08514404 C65.10391592 140.4804882 62.85482663 140.62844601 59.66772461 140.63110352 C57.7043943 140.62077843 57.7043943 140.62077843 55.70140076 140.61024475 C55.00144926 140.61342272 54.30149776 140.61660069 53.58033562 140.61987495 C51.38012771 140.62899837 49.18076994 140.61874473 46.98060608 140.60325623 C40.72544707 140.56321332 34.47035376 140.56193965 28.21508789 140.56420898 C24.38591645 140.56426044 20.55719819 140.54491023 16.72815132 140.51487541 C14.57553158 140.50414643 12.42381453 140.51612781 10.27122498 140.52870178 C1.16635384 140.50446412 -6.53443574 139.57245141 -13.8125 133.75 C-22.78754694 122.46708385 -25.32993071 109.05663162 -28.9375 95.3125 C-29.64305044 92.64153427 -30.3506694 89.97111865 -31.05859375 87.30078125 C-31.39487793 86.03186035 -31.73116211 84.76293945 -32.07763672 83.45556641 C-33.18819247 79.29495072 -34.33333514 75.14516882 -35.5 71 C-38.11022048 61.71283777 -40.58080379 52.38798584 -43.03881836 43.05957031 C-44.51121573 37.49146188 -45.9913592 31.93473737 -47.66015625 26.421875 C-52.62782608 9.98818776 -52.62782608 9.98818776 -49.1171875 1.98828125 C-46.56626428 -2.26623055 -43.23379349 -4.57292544 -38.6484375 -6.34765625 C-25.83597169 -9.5035291 -11.42587009 -6.03371482 0 0 Z " fill="#FDFDFD" transform="translate(97,170)"/>
<path d="M0 0 C0.85912994 -0.00817749 1.71825989 -0.01635498 2.60342407 -0.02478027 C5.44589555 -0.0495828 8.28831706 -0.06614167 11.13085938 -0.08056641 C12.10514389 -0.08589008 13.07942841 -0.09121376 14.08323669 -0.09669876 C19.24526176 -0.12341447 24.40726284 -0.14279007 29.56933594 -0.15722656 C33.82541541 -0.17053543 38.08101199 -0.1983341 42.33691406 -0.23925781 C47.48983073 -0.28879946 52.64231132 -0.31337447 57.79545593 -0.32045364 C59.75051129 -0.32713213 61.70555822 -0.34226446 63.66047668 -0.36634445 C78.62062958 -0.54003056 90.08785421 0.86772687 101.34570312 11.72802734 C109.51099808 21.18179086 110.82195564 31.80287825 110.78710938 43.81787109 C110.80322266 44.93677734 110.81933594 46.05568359 110.8359375 47.20849609 C110.83658203 48.28873047 110.83722656 49.36896484 110.83789062 50.48193359 C110.84087158 51.45855957 110.84385254 52.43518555 110.84692383 53.44140625 C110.40881761 56.67908301 109.38441529 58.56401437 107.47460938 61.19287109 C104.35973561 62.75030798 101.07885129 62.4597334 97.66210938 62.50537109 C96.59379883 62.54887695 96.59379883 62.54887695 95.50390625 62.59326172 C91.98618584 62.63556548 89.61870209 62.26689004 86.47851562 60.65380859 C83.77606205 57.33500596 83.9456095 54.57799426 84.22460938 50.50537109 C84.33410185 48.06688232 84.41572786 45.63351 84.47460938 43.19287109 C83.40815823 41.89653489 83.40815823 41.89653489 80.91210938 42.13037109 C80.10773438 42.15099609 79.30335938 42.17162109 78.47460938 42.19287109 C78.44882812 43.38525391 78.42304688 44.57763672 78.39648438 45.80615234 C78.34020499 47.37259529 78.28285761 48.93900012 78.22460938 50.50537109 C78.21042969 51.29105469 78.19625 52.07673828 78.18164062 52.88623047 C78.14941406 53.64355469 78.1171875 54.40087891 78.08398438 55.18115234 C78.06303711 55.87764893 78.04208984 56.57414551 78.02050781 57.29174805 C77.21505028 60.09680073 75.98298895 60.73299925 73.47460938 62.19287109 C70.21118164 62.57382202 70.21118164 62.57382202 66.29101562 62.58105469 C65.21713089 62.58894012 65.21713089 62.58894012 64.12155151 62.59698486 C61.75984753 62.61016673 59.39881997 62.60145364 57.03710938 62.59130859 C55.39330923 62.59332986 53.74950997 62.59624174 52.10571289 62.6000061 C48.66251071 62.60442698 45.21954219 62.59800612 41.77636719 62.58398438 C37.36441957 62.56689248 32.95301945 62.57673495 28.54109192 62.59470177 C25.14729696 62.60554606 21.75363164 62.60209033 18.35983276 62.59431839 C16.73314346 62.59231816 15.10644237 62.59476945 13.47976685 62.60175705 C11.20559542 62.60938234 8.93230871 62.59775324 6.65820312 62.58105469 C5.36454834 62.57866791 4.07089355 62.57628113 2.73803711 62.57382202 C-0.70370425 62.17205594 -2.11220834 61.62912036 -4.52539062 59.19287109 C-5.07128906 57.19995117 -5.07128906 57.19995117 -5.13476562 54.96240234 C-5.16699219 54.15996094 -5.19921875 53.35751953 -5.23242188 52.53076172 C-5.24660156 51.69738281 -5.26078125 50.86400391 -5.27539062 50.00537109 C-5.30503906 49.16039062 -5.3346875 48.31541016 -5.36523438 47.44482422 C-5.43586052 45.36135288 -5.48289858 43.27710604 -5.52539062 41.19287109 C-8.00039062 41.68787109 -8.00039062 41.68787109 -10.52539062 42.19287109 C-10.54666016 43.98144531 -10.54666016 43.98144531 -10.56835938 45.80615234 C-10.61525893 47.37259736 -10.66350633 48.93900244 -10.71289062 50.50537109 C-10.71869141 51.29105469 -10.72449219 52.07673828 -10.73046875 52.88623047 C-10.94864954 58.58317338 -10.94864954 58.58317338 -13.43945312 61.21630859 C-17.89654292 62.62678005 -22.06708901 62.58827262 -26.71289062 62.50537109 C-28.08477539 62.51020508 -28.08477539 62.51020508 -29.484375 62.51513672 C-36.25811477 62.46014695 -36.25811477 62.46014695 -38.52539062 60.19287109 C-38.95058987 56.06236412 -38.8969764 51.92455861 -38.89599609 47.77392578 C-38.90031687 45.72779756 -38.93646849 43.68392213 -38.97460938 41.63818359 C-39.0120689 28.92691676 -35.62810892 18.85902618 -26.90039062 9.43896484 C-19.13105664 2.26312165 -10.3107541 0.05433812 0 0 Z " fill="#FCFCFC" transform="translate(214.525390625,141.80712890625)"/>
<path d="M0 0 C0.82547301 -0.00623996 1.65094603 -0.01247993 2.50143337 -0.01890898 C5.27150855 -0.03488251 8.04070908 -0.02221788 10.81079102 -0.00964355 C12.79501866 -0.01506274 14.77924228 -0.02218425 16.76345825 -0.03088379 C22.15598001 -0.04914423 27.54819621 -0.04203832 32.94072342 -0.02936745 C38.57898036 -0.0192539 44.2172108 -0.02862854 49.85546875 -0.03491211 C59.32467353 -0.04219331 68.7937536 -0.03258838 78.26293945 -0.0135498 C89.21707497 0.00821978 100.17091271 0.00116875 111.12504101 -0.02085543 C120.5230092 -0.03899593 129.92088765 -0.04157434 139.31886768 -0.03110075 C144.93494868 -0.02485841 150.55088962 -0.02405057 156.16696167 -0.0372467 C161.44639937 -0.04878489 166.72545242 -0.04081651 172.00484848 -0.01766968 C173.9446842 -0.01237173 175.88455218 -0.01391483 177.82437515 -0.02272034 C180.46815485 -0.03361664 183.11069433 -0.01998441 185.75439453 0 C186.52598624 -0.00892289 187.29757795 -0.01784577 188.09255123 -0.02703905 C191.61947007 0.02483939 193.52061102 0.23281629 196.3525238 2.41773224 C198.00362761 4.68126021 198.38972535 5.71386453 198.40844727 8.47668457 C198.41618164 9.5807666 198.41618164 9.5807666 198.42407227 10.70715332 C198.40860352 11.46641113 198.39313477 12.22566895 198.37719727 13.00793457 C198.40040039 14.14682129 198.40040039 14.14682129 198.42407227 15.30871582 C198.41891602 16.04477051 198.41375977 16.7808252 198.40844727 17.53918457 C198.40393555 18.20498535 198.39942383 18.87078613 198.39477539 19.5567627 C197.60179897 22.5461342 196.32468874 23.62174108 193.87719727 25.50793457 C191.02559943 25.90074772 188.56030656 26.04864005 185.70970154 26.01586914 C184.46430834 26.02522908 184.46430834 26.02522908 183.19375569 26.03477812 C180.4075287 26.05075211 177.62217121 26.03808687 174.8359375 26.0255127 C172.84023528 26.03093182 170.84453705 26.03805329 168.84884644 26.04675293 C163.42540164 26.06501294 158.00226067 26.05790794 152.57881045 26.04523659 C146.90938914 26.03512423 141.23999421 26.04449722 135.5705719 26.05078125 C126.05009276 26.0580622 116.52973766 26.04845755 107.00927734 26.02941895 C95.99263844 26.00764317 84.97629555 26.014705 73.95966381 26.03672457 C64.50990714 26.05485833 55.06023974 26.05744698 45.61047131 26.04696989 C39.96256439 26.04072464 34.31479677 26.03992779 28.66689873 26.05311584 C23.35873763 26.06464449 18.05095941 26.05670328 12.74283981 26.03353882 C10.79129613 26.02823601 8.83972038 26.02979221 6.88818932 26.03858948 C4.23092313 26.04946653 1.57489586 26.03587723 -1.08229065 26.01586914 C-2.2498839 26.02925347 -2.2498839 26.02925347 -3.44106489 26.04290819 C-8.61442289 25.96697161 -8.61442289 25.96697161 -11.09823513 23.72423553 C-12.70651879 20.24526488 -12.59537332 16.7636755 -12.56030273 13.00793457 C-12.5802832 12.24867676 -12.60026367 11.48941895 -12.62084961 10.70715332 C-12.61794804 7.3935652 -12.50204185 5.05969134 -10.59947205 2.29163361 C-7.16400428 -0.18259277 -4.07758569 -0.04715426 0 0 Z " fill="#F8F8F8" transform="translate(158.122802734375,215.4920654296875)"/>
<path d="M0 0 C5.39388094 4.05166328 6.54289268 8.76774881 8.1875 15 C8.47375244 16.03108887 8.76000488 17.06217773 9.05493164 18.12451172 C9.87158038 21.0834959 10.67184514 24.04639822 11.46557617 27.01159668 C12.22550179 29.83901293 12.99816484 32.66290667 13.77011108 35.48706055 C17.49711867 49.12593234 21.152526 62.78390277 24.77365112 76.45123291 C26.22755548 81.93707076 27.6951412 87.41915456 29.16992188 92.89941406 C29.69012127 94.84251181 30.20525069 96.78698174 30.71289062 98.73339844 C34.28417688 112.41973261 38.94443617 124.59763733 51 133 C60.00049848 138.20098009 69.53878821 139.28658392 79.765625 139.34375 C81.26026276 139.3656842 81.26026276 139.3656842 82.78509521 139.38806152 C87.01122779 139.44986816 91.23749626 139.4900011 95.46386719 139.53173828 C98.56460715 139.56549365 101.66504145 139.61057269 104.765625 139.65625 C105.71777893 139.6615271 106.66993286 139.6668042 107.65093994 139.67224121 C113.08169289 139.75395464 117.16762875 140.14430849 121.8125 143.1875 C123.74646238 146.13933731 123.35513298 148.56704788 123 152 C121.17560835 156.22490697 119.07755578 157.97537158 115 160 C112.02758789 160.35644531 112.02758789 160.35644531 108.72265625 160.328125 C107.49740234 160.32393555 106.27214844 160.31974609 105.00976562 160.31542969 C103.70716797 160.29383789 102.40457031 160.27224609 101.0625 160.25 C99.70899109 160.23536791 98.35547511 160.22137613 97.00195312 160.20800781 C93.0007206 160.16180462 89.00066768 160.08130406 85 160 C83.90026855 159.98453125 82.80053711 159.9690625 81.66748047 159.953125 C61.22406033 159.63856043 42.80956801 156.06588137 27.7578125 141.0390625 C13.62872823 126.01659284 9.73100714 104.80628449 4.88671875 85.48730469 C3.50626642 80.05823502 2.03456371 74.65480955 0.5625 69.25 C-2.46746668 58.07920677 -5.37672526 46.87944198 -8.24780273 35.66699219 C-9.90681231 29.19715162 -11.59877742 22.7442199 -13.43286133 16.3215332 C-14.3336602 12.63419075 -14.4573587 9.78954354 -14 6 C-10.41248616 0.18575343 -6.66351678 -0.68932932 0 0 Z " fill="#FBFBFB" transform="translate(27,187)"/>
<path d="M0 0 C4.37824204 0.29129433 7.37091092 0.88136637 10.9375 3.69140625 C14.66520901 11.14682426 10.79450514 21.52974821 8.8125 29.00390625 C8.52890625 30.11830078 8.2453125 31.23269531 7.953125 32.38085938 C6.12574764 39.47187805 4.13673352 46.50835604 2.10546875 53.54296875 C-0.14599436 61.34751787 -2.2714392 69.17793546 -4.31640625 77.0390625 C-4.72418304 78.60225975 -4.72418304 78.60225975 -5.14019775 80.19703674 C-6.25233051 84.46488621 -7.36258705 88.73315592 -8.46069336 93.00463867 C-14.44152118 116.2295741 -21.0770795 138.28222806 -42.54296875 151.8671875 C-55.3078607 158.48339676 -68.26135242 160.829224 -82.51171875 160.89453125 C-83.48736282 160.90023132 -84.4630069 160.9059314 -85.46821594 160.9118042 C-87.51794364 160.92119933 -89.56768607 160.92776617 -91.61743164 160.93164062 C-94.75107748 160.94140961 -97.88408402 160.97250999 -101.01757812 161.00390625 C-103.01562113 161.01043145 -105.01366879 161.01568381 -107.01171875 161.01953125 C-107.94513596 161.03187805 -108.87855316 161.04422485 -109.84025574 161.0569458 C-114.73711251 161.04014533 -118.09725555 160.9079959 -122.0625 157.69140625 C-124.42513162 154.65373702 -124.47400566 151.32503435 -124.390625 147.59375 C-123.88469989 144.66058894 -122.39826832 143.40888296 -120.0625 141.69140625 C-117.68945058 140.50488154 -116.20435601 140.54838655 -113.55615234 140.51782227 C-112.62112885 140.50433243 -111.68610535 140.49084259 -110.7227478 140.47694397 C-109.7082254 140.46650558 -108.693703 140.4560672 -107.6484375 140.4453125 C-105.50390244 140.41235611 -103.35937129 140.37914478 -101.21484375 140.34570312 C-97.83124655 140.29841607 -94.4476631 140.25402467 -91.06396484 140.21459961 C-87.80028156 140.17468199 -84.53693344 140.12316574 -81.2734375 140.0703125 C-79.76987198 140.05769127 -79.76987198 140.05769127 -78.2359314 140.04481506 C-70.01869439 139.9014604 -63.28078277 138.59267065 -55.875 134.81640625 C-54.89144531 134.32398438 -53.90789062 133.8315625 -52.89453125 133.32421875 C-40.86926723 126.39103204 -36.68049812 114.40760552 -33.0625 101.69140625 C-32.76730469 100.6559668 -32.47210938 99.62052734 -32.16796875 98.55371094 C-28.32205758 84.96661243 -24.67532211 71.32822825 -21.13867188 57.65771484 C-19.30810996 50.59109744 -17.39984409 43.55074483 -15.41015625 36.52734375 C-14.35075357 32.77325116 -13.35564539 29.00485824 -12.37109375 25.23046875 C-11.76823789 22.96744559 -11.16537335 20.70442475 -10.5625 18.44140625 C-10.15366577 16.83289795 -10.15366577 16.83289795 -9.73657227 15.19189453 C-6.19975695 2.07832762 -6.19975695 2.07832762 0 0 Z " fill="#FBFBFB" transform="translate(474.0625,186.30859375)"/>
<path d="M0 0 C5.96357298 4.11824096 9.17452821 9.20758204 11.9453125 15.8046875 C13.76077538 26.03729647 13.66160137 35.98742154 8.2265625 45.015625 C3.80406007 51.29474401 -1.92044895 55.82644036 -9.25 58.3203125 C-18.49578053 59.88970698 -28.61515207 59.69866974 -36.48046875 54.203125 C-44.35785566 47.70539342 -50.41609032 39.99064667 -51.75390625 29.70703125 C-52.2659786 20.15972686 -49.51744446 13.0392268 -43.69140625 5.515625 C-31.92855522 -7.19366232 -14.65407009 -8.17339223 0 0 Z " fill="#FCFCFC" transform="translate(100.3671875,92.3203125)"/>
<path d="M0 0 C8.64152194 5.85895188 14.92670871 12.82369798 16.953125 23.32421875 C18.04804651 31.86460654 15.87692504 40.74314956 11.2578125 47.98046875 C6.01960076 54.34266925 -0.86757028 58.79537675 -9.046875 60.32421875 C-18.96794849 61.01484234 -27.32891045 60.62800219 -35.234375 54.19921875 C-41.6900981 48.10429455 -46.47766951 40.96994301 -47.3828125 31.9921875 C-47.50785673 20.85074645 -45.38720464 14.18126566 -37.765625 6.04296875 C-28.22426966 -3.49838659 -12.29189667 -6.68547815 0 0 Z " fill="#FCFCFC" transform="translate(433.046875,90.67578125)"/>
<path d="M0 0 C0.62777344 0.33902344 1.25554687 0.67804688 1.90234375 1.02734375 C8.07243895 4.82120973 11.74459983 11.2337995 14 18 C14.75523709 27.50519817 15.05802186 36.08777052 9 44 C2.69060286 51.24090263 -3.49534742 54.1438924 -12.87890625 55.37890625 C-21.96140726 55.93546107 -29.18708358 52.98041196 -36.16796875 47.20703125 C-42.06487342 41.10895286 -45.09371609 33.31522066 -45.5 24.875 C-45.06078438 15.92066869 -40.43784676 8.98079882 -34 3 C-23.42529678 -5.05886473 -11.70368106 -6.72906141 0 0 Z " fill="#FBFBFB" transform="translate(266,76)"/>
</svg>
