<?xml version="1.0" encoding="UTF-8"?>
<svg version="1.1" xmlns="http://www.w3.org/2000/svg" width="572" height="196">
<path d="M0 0 C188.76 0 377.52 0 572 0 C572 64.68 572 129.36 572 196 C383.24 196 194.48 196 0 196 C0 131.32 0 66.64 0 0 Z " fill="#FEFEFE" transform="translate(0,0)"/>
<path d="M0 0 C16.06422787 12.72277494 26.41632513 30.08859038 28.80859375 50.59375 C30.55575119 72.29732799 25.49637928 91.47112454 11.80859375 108.59375 C1.18789928 120.94157728 -13.66489313 132.03401963 -30.19140625 134.59375 C-35.34735716 134.85838106 -40.50048516 134.90675343 -45.66259766 134.94384766 C-47.33428972 134.96030958 -49.00591429 134.98746881 -50.67724609 135.02587891 C-69.88099613 135.46362544 -85.4050113 129.20279274 -99.6875 116.1015625 C-114.14422926 101.6072833 -123.34427099 83.50891903 -123.76196289 62.85229492 C-123.70720523 39.85573823 -117.4682211 22.6399883 -101.48046875 5.828125 C-93.50551996 -1.95629601 -85.01210709 -6.86453886 -75.00537109 -11.54223633 C-73.32623548 -12.34202919 -71.67512566 -13.19995737 -70.02734375 -14.0625 C-48.31345791 -24.35117318 -17.79087765 -13.41392978 0 0 Z " fill="#FDFBFB" transform="translate(139.19140625,44.40625)"/>
<path d="M0 0 C16.06422787 12.72277494 26.41632513 30.08859038 28.80859375 50.59375 C30.55575119 72.29732799 25.49637928 91.47112454 11.80859375 108.59375 C1.18789928 120.94157728 -13.66489313 132.03401963 -30.19140625 134.59375 C-35.34735716 134.85838106 -40.50048516 134.90675343 -45.66259766 134.94384766 C-47.33428972 134.96030958 -49.00591429 134.98746881 -50.67724609 135.02587891 C-69.88099613 135.46362544 -85.4050113 129.20279274 -99.6875 116.1015625 C-114.14422926 101.6072833 -123.34427099 83.50891903 -123.76196289 62.85229492 C-123.70720523 39.85573823 -117.4682211 22.6399883 -101.48046875 5.828125 C-93.50551996 -1.95629601 -85.01210709 -6.86453886 -75.00537109 -11.54223633 C-73.32623548 -12.34202919 -71.67512566 -13.19995737 -70.02734375 -14.0625 C-48.31345791 -24.35117318 -17.79087765 -13.41392978 0 0 Z M-96.19140625 13.59375 C-100.90942868 19.0861953 -104.76621073 25.23004893 -108.19140625 31.59375 C-108.68253906 32.45613281 -109.17367187 33.31851563 -109.6796875 34.20703125 C-116.03786965 47.44279635 -115.03378065 65.68112952 -111.19140625 79.59375 C-110.98 80.41746094 -110.76859375 81.24117188 -110.55078125 82.08984375 C-105.20272134 99.12821409 -92.75882569 111.96186639 -77.23046875 120.15625 C-74.57121736 121.40766242 -71.94024628 122.55344314 -69.19140625 123.59375 C-68.54357178 123.85124023 -67.8957373 124.10873047 -67.22827148 124.37402344 C-61.34211381 126.55884462 -56.00916786 127.1372668 -49.75390625 127.09375 C-48.32353027 127.08625732 -48.32353027 127.08625732 -46.86425781 127.07861328 C-33.70690103 126.76117289 -20.84456142 123.57907926 -10.19140625 115.59375 C-9.28003906 114.9234375 -8.36867188 114.253125 -7.4296875 113.5625 C2.86635554 105.58412012 9.70289223 96.55740564 14.80859375 84.59375 C15.22367188 83.6553125 15.63875 82.716875 16.06640625 81.75 C22.02347281 65.92003291 20.31993029 46.85565851 13.48828125 31.65625 C5.02985968 15.01673215 -8.74783447 2.33881577 -26.49609375 -3.59375 C-51.03624122 -10.99135967 -78.02514217 -4.98538371 -96.19140625 13.59375 Z " fill="#D87D2A" transform="translate(139.19140625,44.40625)"/>
<path d="M0 0 C2.9375 0.625 2.9375 0.625 4.75 2.8125 C6.54072584 7.05369278 7.05208501 11.02349349 7.1484375 15.6015625 C7.17679688 16.519375 7.20515625 17.4371875 7.234375 18.3828125 C7.28666571 20.30188158 7.33087381 22.22118713 7.3671875 24.140625 C7.398125 25.05585937 7.4290625 25.97109375 7.4609375 26.9140625 C7.48075684 27.74631348 7.50057617 28.57856445 7.52099609 29.43603516 C8.03176417 32.12041181 8.73133173 33.04005402 10.9375 34.625 C14.49413226 34.95048832 14.49413226 34.95048832 17.9375 33.625 C21.62065795 27.22838388 21.37167154 21.04667309 21.37695312 13.83203125 C21.46886233 9.62956193 21.57728062 7.22232581 23.7890625 3.5546875 C25.9375 1.625 25.9375 1.625 28.875 0.875 C32.49956042 1.76264745 33.88521452 3.12795727 35.84814453 6.27099609 C40.19796573 15.6705873 40.45623714 26.14278995 40.375 36.3125 C40.36887695 37.62307373 40.36275391 38.93364746 40.35644531 40.28393555 C40.11312857 55.45660598 38.35087254 72.59086989 27.484375 84.18359375 C22.47860315 88.84806297 17.50126744 89.15636214 10.9140625 88.9765625 C5.18905631 88.30038067 1.49949577 86.11080085 -2.625 82.1875 C-4.0625 79.625 -4.0625 79.625 -3.9375 76.9375 C-3.0625 74.625 -3.0625 74.625 -1.0625 72.625 C3.68214088 72.33451178 8.23489588 72.84019067 12.921875 73.50390625 C15.14432479 73.76303095 15.14432479 73.76303095 17.9375 72.625 C22.16500958 64.04876192 23.39901643 54.05774664 23.9375 44.625 C23.46699219 45.17929688 22.99648438 45.73359375 22.51171875 46.3046875 C21.88910156 47.02914062 21.26648438 47.75359375 20.625 48.5 C20.01011719 49.21929687 19.39523437 49.93859375 18.76171875 50.6796875 C16.56537834 53.02182352 14.87579583 54.50254444 11.6328125 54.92578125 C2.85430567 54.96580484 2.85430567 54.96580484 -1.0625 51.625 C-6.58089425 46.10660575 -9.23997576 38.60012562 -9.5234375 30.8984375 C-9.51559306 28.93209865 -9.48677309 26.96573706 -9.4375 25 C-9.43621094 24.01515625 -9.43492187 23.0303125 -9.43359375 22.015625 C-9.35013905 15.06106679 -8.88594347 8.7509031 -5.3125 2.625 C-3.0625 0.625 -3.0625 0.625 0 0 Z " fill="#DB712B" transform="translate(506.0625,78.375)"/>
<path d="M0 0 C3.40467131 0.53002726 5.67871501 1.16982011 8.390625 3.30078125 C9.31911255 4.01621094 9.31911255 4.01621094 10.26635742 4.74609375 C10.92095947 5.26300781 11.57556152 5.77992187 12.25 6.3125 C13.66626361 7.40455868 15.08429439 8.49432865 16.50390625 9.58203125 C17.23754395 10.14486816 17.97118164 10.70770508 18.72705078 11.28759766 C23.17615014 14.63947552 27.75598012 17.80731369 32.32714844 20.98950195 C32.99649414 21.45702881 33.66583984 21.92455566 34.35546875 22.40625 C35.30365479 23.06367187 35.30365479 23.06367187 36.27099609 23.734375 C38 25 38 25 40.67578125 27.40625 C42.84779137 29.19092522 42.84779137 29.19092522 45.30078125 29.12890625 C49.43051318 27.40171012 52.69477393 24.70323331 56.1875 21.9375 C57.61522536 20.81744119 59.04606637 19.70133881 60.48046875 18.58984375 C61.10848389 18.09347412 61.73649902 17.59710449 62.38354492 17.08569336 C64 16 64 16 66 16 C66 12.7 66 9.4 66 6 C73.92 6 81.84 6 90 6 C91.8622711 24.15714322 91.8622711 24.15714322 88.70361328 28.97900391 C85.08831256 32.58795642 80.74363497 35.10185145 76.33154297 37.62304688 C72.41863631 39.93391531 68.80213474 42.64887888 65.125 45.3125 C63.70758446 46.30473892 62.28837008 47.29441417 60.8671875 48.28125 C58.50252184 49.93064173 56.18860297 51.61007295 53.8828125 53.34375 C52.57957031 54.31828125 52.57957031 54.31828125 51.25 55.3125 C50.53328125 55.86550781 49.8165625 56.41851562 49.078125 56.98828125 C47 58 47 58 44.63671875 57.9453125 C41.18019596 56.70608507 38.46860065 54.74780906 35.5625 52.5625 C34.31396765 51.64690961 33.06526497 50.73155144 31.81640625 49.81640625 C31.18234863 49.34734863 30.54829102 48.87829102 29.89501953 48.39501953 C27.52347802 46.64920811 25.13025044 44.93592813 22.72680664 43.234375 C21.56967838 42.40722379 20.42168668 41.56714896 19.28295898 40.71484375 C16.28581892 38.49292101 13.40285842 36.65707565 10.0078125 35.09765625 C5.86138966 33.02290493 2.28709343 31.18036337 0 27 C-1.73007663 18.14318725 -0.85462353 8.9237723 0 0 Z " fill="#DA7724" transform="translate(47,82)"/>
<path d="M0 0 C6.42487018 4.34802178 9.97574488 10.82276201 11.94140625 18.2109375 C14.11811359 30.54561244 12.71810791 42.84964459 5.984375 53.58203125 C1.99619528 58.4884826 -2.19519929 61.38318678 -8.6015625 62.26953125 C-14.04513982 62.57043251 -17.14993617 61.61927407 -21.37109375 57.9609375 C-28.14060609 51.87007301 -30.88151198 44.20331308 -31.71875 35.23828125 C-31.99295576 23.51896529 -30.31037875 12.9853184 -22.37109375 3.9609375 C-16.295775 -1.84255491 -7.79883835 -3.41761285 0 0 Z " fill="#DB722C" transform="translate(363.37109375,78.0390625)"/>
<path d="M0 0 C3.68360811 0.65004849 3.99316719 1.14421013 6.0625 4.0625 C6.79080945 5.21680177 7.50579621 6.38007573 8.1875 7.5625 C8.93 6.94375 9.6725 6.325 10.4375 5.6875 C15.7539956 1.57929886 18.93542759 1.25516662 25.55859375 2.03125 C29.11837012 2.75061045 30.84556422 3.78145126 33.1875 6.5625 C36.68922914 12.87415326 36.63895681 18.63526897 36.5625 25.75 C36.57410156 26.81025391 36.58570313 27.87050781 36.59765625 28.96289062 C36.55525219 40.56040076 34.17299467 53.64713643 27.25 63.25 C25.1875 64.5625 25.1875 64.5625 22.5625 64.5 C20.1875 63.5625 20.1875 63.5625 18.1875 60.5625 C17.09636941 56.57780158 17.05356074 52.74153058 17.0625 48.625 C17.05863281 46.84802734 17.05863281 46.84802734 17.0546875 45.03515625 C17.1875 41.5625 17.1875 41.5625 17.69140625 38.61328125 C18.28626347 34.95514352 18.29651596 31.38015177 18.25 27.6875 C18.24548828 26.99914062 18.24097656 26.31078125 18.23632812 25.6015625 C18.22466336 23.92183665 18.20673271 22.24215625 18.1875 20.5625 C16.8675 20.2325 15.5475 19.9025 14.1875 19.5625 C9.00620936 26.73817632 9.66865435 33.64815369 9.69921875 42.2265625 C9.60923495 48.99988821 9.03834523 54.80421148 5.1875 60.5625 C2.1875 62.5625 2.1875 62.5625 -0.8125 62.5625 C-3.8125 61.5625 -3.8125 61.5625 -5.625 58.8125 C-7.77410272 52.9307452 -7.9846063 47.54861421 -8.015625 41.3515625 C-8.02132507 40.46520111 -8.02702515 39.57883972 -8.03289795 38.6656189 C-8.04232152 36.79466944 -8.0488714 34.92370358 -8.05273438 33.05273438 C-8.06244332 30.20413044 -8.09349294 27.35624746 -8.125 24.5078125 C-8.13153065 22.68490009 -8.13678088 20.86198255 -8.140625 19.0390625 C-8.1529718 18.19405182 -8.1653186 17.34904114 -8.17803955 16.47842407 C-8.15433201 10.12567695 -7.43331104 1.48666221 0 0 Z " fill="#DB732D" transform="translate(290.8125,75.4375)"/>
<path d="M0 0 C3.89159496 0.89182385 4.87868809 2.38768148 7 5.6875 C7.33 6.3475 7.66 7.0075 8 7.6875 C8.56847656 7.254375 9.13695312 6.82125 9.72265625 6.375 C13.40527684 3.71908665 16.08290386 1.82980802 20.625 1.125 C25.74188058 1.97781343 29.55361927 3.28021064 33.3125 6.9375 C40.02620215 17.87834794 37.55279091 33.61697594 35.0546875 45.6796875 C33.44402083 52.4020508 30.53570358 60.22654738 25 64.6875 C22.5 64.75 22.5 64.75 20 63.6875 C17.22402811 59.23933552 16.6360246 55.88477821 16.75 50.6875 C16.77320313 48.9240625 16.77320313 48.9240625 16.796875 47.125 C17 43.6875 17 43.6875 17.51171875 40.8671875 C18.1818687 36.50317102 18.10564246 32.21966821 18.0625 27.8125 C18.05798828 26.93335937 18.05347656 26.05421875 18.04882812 25.1484375 C18.03712337 22.99476197 18.01919069 20.84112183 18 18.6875 C16.06567961 18.94051316 16.06567961 18.94051316 14 19.6875 C9.63072902 26.22596735 9.41300776 32.0391766 9.375 39.75 C9.1784642 55.75784125 9.1784642 55.75784125 5.1875 61.125 C3 62.6875 3 62.6875 0.5 63.25 C-3.08356245 62.44369845 -4.06591288 60.72677976 -6 57.6875 C-6.93133721 54.76140384 -7.13970611 52.07524254 -7.17700195 49.01416016 C-7.18983719 48.09285309 -7.20267242 47.17154602 -7.21589661 46.22232056 C-7.22328354 45.2337204 -7.23067047 44.24512024 -7.23828125 43.2265625 C-7.25038887 41.69157608 -7.25038887 41.69157608 -7.26274109 40.12557983 C-7.2765599 37.96199223 -7.28729189 35.79838303 -7.29516602 33.63476562 C-7.31240029 30.33161125 -7.35630941 27.02945246 -7.40039062 23.7265625 C-7.41051631 21.62240318 -7.4190328 19.51823537 -7.42578125 17.4140625 C-7.44328934 16.4295108 -7.46079742 15.44495911 -7.47883606 14.43057251 C-7.45912162 8.17970305 -7.15370872 1.63939158 0 0 Z " fill="#DB722C" transform="translate(241,75.3125)"/>
<path d="M0 0 C4.31479875 2.26254993 7.27435927 5.43024769 9 10 C9.30078125 13.3125 9.30078125 13.3125 9.3125 17 C9.32925781 18.216875 9.34601563 19.43375 9.36328125 20.6875 C8.97804172 24.20022175 8.53207818 25.58433921 6 28 C2.5 28.9375 2.5 28.9375 -1 29 C-4.10406861 26.78807462 -4.57081735 24.46515879 -5.1875 20.8125 C-5.34605469 19.91144531 -5.50460937 19.01039062 -5.66796875 18.08203125 C-5.77753906 17.39496094 -5.88710938 16.70789063 -6 16 C-6.99 16 -7.98 16 -9 16 C-10.80996216 21.65755469 -12.35729017 27.0870696 -13 33 C-12.24074219 32.97679687 -11.48148437 32.95359375 -10.69921875 32.9296875 C-9.70535156 32.91164062 -8.71148437 32.89359375 -7.6875 32.875 C-6.70136719 32.85179687 -5.71523438 32.82859375 -4.69921875 32.8046875 C-2 33 -2 33 1 35 C1.5625 37.875 1.5625 37.875 1 41 C-2.97196841 44.48758202 -6.97565991 45.63787213 -12 47 C-11.98428955 47.85231201 -11.9685791 48.70462402 -11.95239258 49.58276367 C-11.90111038 52.76031226 -11.86357518 55.93764913 -11.83520508 59.11547852 C-11.82016568 60.48794517 -11.79972867 61.86036414 -11.77368164 63.23266602 C-11.73708779 65.21088656 -11.72183302 67.18946514 -11.70703125 69.16796875 C-11.6913208 70.35672607 -11.67561035 71.5454834 -11.65942383 72.77026367 C-12.03331254 76.31590796 -12.87122417 78.17058165 -15 81 C-17.91055201 82.455276 -19.78091798 82.45067148 -23 82 C-28.54802411 76.60192249 -27.92158437 69.30269626 -28.02978516 61.98583984 C-28.073089 57.65646237 -28.05322982 53.32935835 -28 49 C-28.61488281 48.95101562 -29.22976563 48.90203125 -29.86328125 48.8515625 C-30.67152344 48.77679688 -31.47976563 48.70203125 -32.3125 48.625 C-33.11300781 48.55539063 -33.91351563 48.48578125 -34.73828125 48.4140625 C-37 48 -37 48 -40 46 C-40.4375 42.5625 -40.4375 42.5625 -40 39 C-36.95617342 35.16213171 -31.59024573 34.83369848 -27 34 C-27.05220703 33.10861328 -27.05220703 33.10861328 -27.10546875 32.19921875 C-27.44578731 21.77898848 -25.04250039 12.53926564 -18.64453125 4.2421875 C-13.4752616 -1.24617287 -7.13582197 -1.36433326 0 0 Z " fill="#DB722B" transform="translate(492,56)"/>
<path d="M0 0 C2 2 2 2 2.4375 4.875 C2 8 2 8 -0.1875 10.3125 C-2.94702354 11.96821413 -4.87697887 12.46987372 -8 13 C-7.98952637 13.61182129 -7.97905273 14.22364258 -7.96826172 14.85400391 C-7.74979486 29.7069852 -8.37241669 44.23549429 -10 59 C-9.04996094 59.14179687 -8.09992188 59.28359375 -7.12109375 59.4296875 C-4 60 -4 60 -2.0625 61.125 C-1 63 -1 63 -0.9375 66.4375 C-2 70 -2 70 -4.6875 72.3125 C-13.52696729 76.81562485 -23.17026149 77.82938419 -33 77 C-36.1875 75.875 -36.1875 75.875 -38 74 C-38.75 71.1875 -38.75 71.1875 -38 68 C-35.94335758 65.59421935 -33.71107106 63.63709216 -31 62 C-30.01 62 -29.02 62 -28 62 C-27.93941406 60.87722656 -27.87882813 59.75445312 -27.81640625 58.59765625 C-27.73189983 57.08593028 -27.64725707 55.57421193 -27.5625 54.0625 C-27.50352539 52.95938477 -27.50352539 52.95938477 -27.44335938 51.83398438 C-27.23026911 48.08031746 -26.94592977 44.35856882 -26.5 40.625 C-25.89190872 35.40654344 -25.66023056 30.18444776 -25.4375 24.9375 C-25.39431641 23.97650391 -25.35113281 23.01550781 -25.30664062 22.02539062 C-25.20178868 19.68369723 -25.09962212 17.34192071 -25 15 C-27.00195312 15.03662109 -29.00390625 15.07324219 -31.00585938 15.10986328 C-33 15 -33 15 -35.5 13.875 C-37 12 -37 12 -37.625 9.125 C-36.92299137 5.61495686 -35.84048344 4.18877876 -32.9453125 2.1015625 C-23.38760611 -3.31063268 -10.1761044 -4.1629518 0 0 Z " fill="#DB712A" transform="translate(230,62)"/>
<path d="M0 0 C1.226548 0.00303635 1.226548 0.00303635 2.47787476 0.00613403 C3.76315567 0.00350555 3.76315567 0.00350555 5.07440186 0.00082397 C7.9211527 -0.00359561 10.76784197 -0.00065618 13.61459351 0.00271606 C15.58375053 0.00204306 17.55290747 0.00107306 19.52206421 -0.00018311 C23.65480335 -0.00166022 27.78752093 0.00049492 31.92025757 0.00515747 C37.23033871 0.01085476 42.54036932 0.00757583 47.85044861 0.00158501 C51.91834904 -0.00202023 55.9862374 -0.00088219 60.05413818 0.0017128 C62.01265468 0.00238217 63.97117226 0.00155329 65.9296875 -0.00076675 C68.6619255 -0.00329267 71.39408047 0.00054645 74.12631226 0.00613403 C74.94401093 0.0041098 75.76170959 0.00208557 76.60418701 0 C82.18783105 0.02126611 82.18783105 0.02126611 83.30209351 1.13552856 C83.30209351 6.74552856 83.30209351 12.35552856 83.30209351 18.13552856 C61.19209351 18.13552856 39.08209351 18.13552856 16.30209351 18.13552856 C16.30209351 21.43552856 16.30209351 24.73552856 16.30209351 28.13552856 C11.97681978 28.13552856 11.31236447 27.7733315 8.00912476 25.32693481 C7.21441772 24.7449231 6.41971069 24.16291138 5.60092163 23.56326294 C4.78043335 22.9477356 3.95994507 22.33220825 3.11459351 21.69802856 C2.28250366 21.08636841 1.45041382 20.47470825 0.59310913 19.84451294 C-5.4353143 15.39812076 -5.4353143 15.39812076 -6.69790649 14.13552856 C-6.79683589 11.9707206 -6.8276175 9.80259071 -6.82290649 7.63552856 C-6.82548462 6.44959106 -6.82806274 5.26365356 -6.83071899 4.04177856 C-6.59978399 -1.01162281 -4.52666885 0.01724047 0 0 Z " fill="#D65014" transform="translate(53.697906494140625,59.864471435546875)"/>
<path d="M0 0 C7.55349952 7.51554223 9.93792878 21.10358249 13 31 C15.71201942 28.28798058 16.7492894 25.05084062 18.1875 21.5625 C25.50609229 4.3292718 25.50609229 4.3292718 32 0 C35.625 0.25 35.625 0.25 39 1 C41.40737928 5.81475855 39.91116229 11.13819361 38.32421875 16.00048828 C37.94716797 17.08305908 37.94716797 17.08305908 37.5625 18.1875 C37.29953125 18.95562012 37.0365625 19.72374023 36.765625 20.51513672 C34.59839879 26.66179599 32.12969919 32.66289964 29.5 38.625 C29.14494385 39.44121826 28.7898877 40.25743652 28.42407227 41.09838867 C25.29492063 47.98676519 21.52541083 54.8341399 15 59 C11.6875 59.25 11.6875 59.25 8 58 C2.12094311 52.5596787 -1.08450497 45.31910731 -4 38 C-4.37125 37.07832031 -4.7425 36.15664062 -5.125 35.20703125 C-8.45841229 26.51809994 -10.15655692 18.37821576 -10.4375 9.0625 C-10.47746094 7.79535156 -10.51742188 6.52820313 -10.55859375 5.22265625 C-10 2 -10 2 -7.78515625 -0.00390625 C-4.5693971 -1.15400244 -3.17049387 -1.23471379 0 0 Z " fill="#DB722B" transform="translate(389,80)"/>
<path d="M0 0 C3.125 0.3125 3.125 0.3125 4.9375 2.125 C7.40930556 6.67832603 7.318245 10.95521012 7.36328125 16.00390625 C7.371353 16.86378647 7.37942474 17.72366669 7.38774109 18.60960388 C7.40157365 20.43283072 7.41229951 22.25608336 7.42016602 24.0793457 C7.43164478 25.93066068 7.45203101 27.78194365 7.48168945 29.63305664 C7.81694612 50.5631865 7.81694612 50.5631865 3.125 57.3125 C0.125 59.3125 0.125 59.3125 -2.375 59.25 C-4.875 58.3125 -4.875 58.3125 -6.5625 56.375 C-10.06249873 48.20833629 -10.1889949 39.63696818 -10.125 30.875 C-10.13273437 29.81990234 -10.14046875 28.76480469 -10.1484375 27.67773438 C-10.08300549 1.09597886 -10.08300549 1.09597886 0 0 Z " fill="#DB732D" transform="translate(442.875,77.6875)"/>
<path d="M0 0 C0.02465288 4.68139254 0.04283739 9.36274759 0.05493164 14.04418945 C0.05997157 15.63794614 0.0668035 17.23169819 0.07543945 18.82543945 C0.08751999 21.11150253 0.09323155 23.39750467 0.09765625 25.68359375 C0.10281754 26.40026718 0.10797882 27.11694061 0.11329651 27.85533142 C0.11349263 29.57063672 0.06192007 31.28581266 0 33 C-1.58937556 34.58937556 -3.23899846 34.12981143 -5.4375 34.1328125 C-6.77941406 34.13474609 -6.77941406 34.13474609 -8.1484375 34.13671875 C-9.08945313 34.13285156 -10.03046875 34.12898438 -11 34.125 C-12.41152344 34.13080078 -12.41152344 34.13080078 -13.8515625 34.13671875 C-14.74617188 34.13542969 -15.64078125 34.13414062 -16.5625 34.1328125 C-17.38878906 34.13168457 -18.21507813 34.13055664 -19.06640625 34.12939453 C-21 34 -21 34 -22 33 C-23.98861626 17.73255903 -23.98861626 17.73255903 -19.828125 12.015625 C-16.99360493 9.74487688 -14.11774107 7.85833777 -11 6 C-9.48733922 4.82867015 -7.98550316 3.64308559 -6.5 2.4375 C-3.38211382 0 -3.38211382 0 0 0 Z " fill="#D76A22" transform="translate(137,116)"/>
<path d="M0 0 C3.7612761 1.50451044 5.89745828 2.45712114 8.953125 4.78515625 C10.005 5.58083008 10.005 5.58083008 11.078125 6.39257812 C12.15320313 7.21918945 12.15320313 7.21918945 13.25 8.0625 C13.9821875 8.61744141 14.714375 9.17238281 15.46875 9.74414062 C20.78698118 13.78698118 20.78698118 13.78698118 22 15 C22.08631874 16.34267413 22.10706473 17.68974322 22.09765625 19.03515625 C22.09515869 19.76355713 22.09266113 20.49195801 22.09008789 21.24243164 C22.08098389 22.1730542 22.07187988 23.10367676 22.0625 24.0625 C22.041875 27.011875 22.02125 29.96125 22 33 C14.74 33 7.48 33 0 33 C0 22.11 0 11.22 0 0 Z " fill="#DFB43D" transform="translate(47,116)"/>
<path d="M0 0 C1.226548 0.00303635 1.226548 0.00303635 2.47787476 0.00613403 C3.76315567 0.00350555 3.76315567 0.00350555 5.07440186 0.00082397 C7.9211527 -0.00359561 10.76784197 -0.00065618 13.61459351 0.00271606 C15.58375053 0.00204306 17.55290747 0.00107306 19.52206421 -0.00018311 C23.65480335 -0.00166022 27.78752093 0.00049492 31.92025757 0.00515747 C37.23033871 0.01085476 42.54036932 0.00757583 47.85044861 0.00158501 C51.91834904 -0.00202023 55.9862374 -0.00088219 60.05413818 0.0017128 C62.01265468 0.00238217 63.97117226 0.00155329 65.9296875 -0.00076675 C68.6619255 -0.00329267 71.39408047 0.00054645 74.12631226 0.00613403 C74.94401093 0.0041098 75.76170959 0.00208557 76.60418701 0 C82.18783105 0.02126611 82.18783105 0.02126611 83.30209351 1.13552856 C83.30209351 6.74552856 83.30209351 12.35552856 83.30209351 18.13552856 C61.19209351 18.13552856 39.08209351 18.13552856 16.30209351 18.13552856 C16.30209351 17.80552856 16.30209351 17.47552856 16.30209351 17.13552856 C37.75209351 17.13552856 59.20209351 17.13552856 81.30209351 17.13552856 C81.30209351 12.18552856 81.30209351 7.23552856 81.30209351 2.13552856 C52.92209351 2.13552856 24.54209351 2.13552856 -4.69790649 2.13552856 C-4.36790649 6.42552856 -4.03790649 10.71552856 -3.69790649 15.13552856 C-1.71790649 15.79552856 0.26209351 16.45552856 2.30209351 17.13552856 C4.71935455 18.35753876 6.97608985 19.73992637 9.30209351 21.13552856 C9.30209351 22.12552856 9.30209351 23.11552856 9.30209351 24.13552856 C9.92084351 24.44490356 10.53959351 24.75427856 11.17709351 25.07302856 C12.55209351 25.76052856 13.92709351 26.44802856 15.30209351 27.13552856 C15.30209351 24.49552856 15.30209351 21.85552856 15.30209351 19.13552856 C15.63209351 19.13552856 15.96209351 19.13552856 16.30209351 19.13552856 C16.30209351 22.10552856 16.30209351 25.07552856 16.30209351 28.13552856 C11.97681978 28.13552856 11.31236447 27.7733315 8.00912476 25.32693481 C7.21441772 24.7449231 6.41971069 24.16291138 5.60092163 23.56326294 C4.78043335 22.9477356 3.95994507 22.33220825 3.11459351 21.69802856 C2.28250366 21.08636841 1.45041382 20.47470825 0.59310913 19.84451294 C-5.4353143 15.39812076 -5.4353143 15.39812076 -6.69790649 14.13552856 C-6.79683589 11.9707206 -6.8276175 9.80259071 -6.82290649 7.63552856 C-6.82548462 6.44959106 -6.82806274 5.26365356 -6.83071899 4.04177856 C-6.59978399 -1.01162281 -4.52666885 0.01724047 0 0 Z " fill="#A84622" transform="translate(53.697906494140625,59.864471435546875)"/>
<path d="M0 0 C2 0.1875 2 0.1875 4 1 C7.33707859 6.00561788 7.20629868 11.05421035 7.25 16.9375 C7.270625 17.62779297 7.29125 18.31808594 7.3125 19.02929688 C7.34844908 23.77008127 6.54392035 26.99715665 4 31 C1.8125 31.875 1.8125 31.875 0 32 C-5.76291633 24.92732996 -5.68028403 17.83353885 -5 9 C-4.07058298 5.31830936 -2.71723256 2.71723256 0 0 Z " fill="#FDFAF8" transform="translate(353,93)"/>
<path d="M0 0 C2.875 -0.125 2.875 -0.125 6 0 C6.66 0.66 7.32 1.32 8 2 C9.19625 2.4125 10.3925 2.825 11.625 3.25 C15.70003125 4.70168383 18.66772528 6.82996602 22.03515625 9.50390625 C24.86771785 11.66070762 27.872719 13.30605612 31 15 C31 15.99 31 16.98 31 18 C31.66 18 32.32 18 33 18 C37 22.47058824 37 22.47058824 37 25 C37.66 25 38.32 25 39 25 C44.17578125 35.3515625 44.17578125 35.3515625 45.10083008 37.21069336 C45.9355772 38.8718016 46.79492643 40.52048428 47.65625 42.16796875 C53.26323785 53.98502162 53.03869873 73.65953167 49 86 C48.34 86.66 47.68 87.32 47 88 C46.7525 89.010625 46.505 90.02125 46.25 91.0625 C45.15827022 95.29628132 42.85963311 98.46036641 40.33984375 101.984375 C38.83579829 104.05623578 38.83579829 104.05623578 38 107 C37.34 107 36.68 107 36 107 C35.731875 107.598125 35.46375 108.19625 35.1875 108.8125 C34.01506533 110.97224808 32.80630718 112.35790256 31 114 C30.34 113.67 29.68 113.34 29 113 C29.42410156 112.56171875 29.84820312 112.1234375 30.28515625 111.671875 C44.30932678 96.50727742 49.14689269 79.65822187 48.41796875 59.4453125 C47.35056398 42.10970229 38.8192184 26.92049111 26.125 15.25 C18.2610451 8.73240314 9.46594576 4.67577963 0 1 C0 0.67 0 0.34 0 0 Z " fill="#B1502E" transform="translate(109,39)"/>
<path d="M0 0 C0.66 0.99 1.32 1.98 2 3 C1.01 3.33 0.02 3.66 -1 4 C-1.33 5.65 -1.66 7.3 -2 9 C-2.66 9 -3.32 9 -4 9 C-4.33 11.97 -4.66 14.94 -5 18 C-5.66 18 -6.32 18 -7 18 C-6.98839844 18.63808594 -6.97679687 19.27617188 -6.96484375 19.93359375 C-6.95582031 20.75988281 -6.94679688 21.58617188 -6.9375 22.4375 C-6.92589844 23.26121094 -6.91429687 24.08492187 -6.90234375 24.93359375 C-7 27 -7 27 -8 28 C-8.09924253 29.44388524 -8.13079938 30.89255331 -8.1328125 32.33984375 C-8.13410156 33.23896484 -8.13539062 34.13808594 -8.13671875 35.06445312 C-8.13285156 36.01255859 -8.12898438 36.96066406 -8.125 37.9375 C-8.12886719 38.85080078 -8.13273437 39.76410156 -8.13671875 40.70507812 C-8.33273009 52.22084077 -8.33273009 52.22084077 -5 63 C-4.875 65.75 -4.875 65.75 -5 68 C-4.34 68 -3.68 68 -3 68 C-2.30093058 69.59915881 -1.61610532 71.20455045 -0.9375 72.8125 C-0.55464844 73.70582031 -0.17179687 74.59914063 0.22265625 75.51953125 C1 78 1 78 0 81 C-1.28709932 78.59089248 -2.55417226 76.17409897 -3.8125 73.75 C-4.16892578 73.08742188 -4.52535156 72.42484375 -4.89257812 71.7421875 C-10.11930695 61.5764397 -11.58622165 51.20658733 -11.5625 39.875 C-11.55996216 38.11482544 -11.55996216 38.11482544 -11.55737305 36.3190918 C-11.2746656 22.51181129 -7.5764412 11.4375304 0 0 Z " fill="#BF9955" transform="translate(27,64)"/>
<path d="M0 0 C0.81926971 0.00359528 1.63853943 0.00719055 2.4826355 0.01089478 C3.34109573 0.01074875 4.19955597 0.01060272 5.08403015 0.01045227 C7.93559249 0.0111517 10.78709036 0.01894547 13.63864136 0.02676392 C15.61019353 0.02862799 17.58174615 0.03005194 19.55329895 0.03105164 C24.75324778 0.03487765 29.95316886 0.04470865 35.15310669 0.05575562 C40.45492172 0.06596794 45.75674121 0.07054887 51.05856323 0.07559204 C61.46938274 0.08633084 71.88018162 0.10340826 82.29098511 0.12442017 C82.29098511 0.45442017 82.29098511 0.78442017 82.29098511 1.12442017 C53.58098511 1.12442017 24.87098511 1.12442017 -4.70901489 1.12442017 C-4.37901489 5.74442017 -4.04901489 10.36442017 -3.70901489 15.12442017 C-1.72901489 15.78442017 0.25098511 16.44442017 2.29098511 17.12442017 C4.70824615 18.34643036 6.96498145 19.72881797 9.29098511 21.12442017 C9.29098511 22.11442017 9.29098511 23.10442017 9.29098511 24.12442017 C9.90973511 24.43379517 10.52848511 24.74317017 11.16598511 25.06192017 C12.54098511 25.74942017 13.91598511 26.43692017 15.29098511 27.12442017 C15.29098511 24.48442017 15.29098511 21.84442017 15.29098511 19.12442017 C15.62098511 19.12442017 15.95098511 19.12442017 16.29098511 19.12442017 C16.29098511 22.09442017 16.29098511 25.06442017 16.29098511 28.12442017 C11.96571138 28.12442017 11.30125607 27.7622231 7.99801636 25.31582642 C7.20330933 24.7338147 6.40860229 24.15180298 5.58981323 23.55215454 C4.76932495 22.9366272 3.94883667 22.32109985 3.10348511 21.68692017 C2.27139526 21.07526001 1.43930542 20.46359985 0.58200073 19.83340454 C-5.4464227 15.38701236 -5.4464227 15.38701236 -6.70901489 14.12442017 C-6.80794429 11.9596122 -6.8387259 9.79148232 -6.83401489 7.62442017 C-6.83659302 6.43848267 -6.83917114 5.25254517 -6.84182739 4.03067017 C-6.61059892 -1.02915282 -4.52955657 0.0083937 0 0 Z " fill="#B26E59" transform="translate(53.709014892578125,59.875579833984375)"/>
<path d="M0 0 C11.40339155 8.14527968 17.13914694 23.92155818 19.5625 37.25 C21.51203692 53.96031642 20.06469255 70.94590723 12 86 C11.01 86.495 11.01 86.495 10 87 C10.78810547 82.47448715 12.28524803 78.46669036 13.96484375 74.20703125 C16.51365506 66.31052528 17.38677017 58.5854563 17.375 50.3125 C17.37628906 49.36004395 17.37757813 48.40758789 17.37890625 47.42626953 C17.271009 40.14688346 16.10960258 33.8039802 13.875 26.8984375 C13 24 13 24 13 20 C12.34 20 11.68 20 11 20 C10.443125 18.7934375 10.443125 18.7934375 9.875 17.5625 C8.05619749 13.89008537 5.74998857 10.59731193 3.40234375 7.24609375 C1.94023123 4.90427007 0.9501962 2.5868978 0 0 Z " fill="#AB593F" transform="translate(148,54)"/>
<path d="M0 0 C2.43883683 2.37109136 4.75158085 4.66823325 6.79296875 7.39453125 C13.33502394 15.11763004 23.64855162 20.46091595 33 24 C33.64275879 24.25894043 34.28551758 24.51788086 34.94775391 24.78466797 C40.99216804 27.04981451 46.45447614 27.46789789 52.875 27.375 C54.32592041 27.36738647 54.32592041 27.36738647 55.80615234 27.35961914 C61.84285168 27.25329265 67.27349908 26.69013739 72.9765625 24.55859375 C75.3521301 23.90279034 76.69590881 24.21285573 79 25 C64.17332467 32.41333767 46.83142008 30.73207866 31 28 C31 27.01 31 26.02 31 25 C30.278125 24.896875 29.55625 24.79375 28.8125 24.6875 C25.73980452 23.93639666 23.69796974 22.61878185 21 21 C20.175 20.87625 19.35 20.7525 18.5 20.625 C14.93781738 19.73445434 13.34158975 17.74300514 11 15 C11 14.34 11 13.68 11 13 C9.68 12.67 8.36 12.34 7 12 C7 11.34 7 10.68 7 10 C6.34 10 5.68 10 5 10 C3.7109375 8.57421875 3.7109375 8.57421875 2.375 6.6875 C1.92898437 6.07261719 1.48296875 5.45773438 1.0234375 4.82421875 C0 3 0 3 0 0 Z " fill="#CEA850" transform="translate(37,143)"/>
<path d="M0 0 C0.99 0.99 0.99 0.99 2 2 C-2.95 1.01 -2.95 1.01 -8 0 C-8 -0.66 -8 -1.32 -8 -2 C-9.051875 -2.12375 -10.10375 -2.2475 -11.1875 -2.375 C-13.79709566 -2.69201074 -16.37757747 -3.06508243 -18.96875 -3.51171875 C-36.39249932 -6.49320983 -55.77184126 -6.15210582 -71 4 C-71.99 3.67 -72.98 3.34 -74 3 C-48.7106402 -10.06358341 -26.45887218 -12.62809809 0 0 Z " fill="#A95133" transform="translate(126,36)"/>
<path d="M0 0 C7.92 0 15.84 0 24 0 C25.88058351 18.3356892 25.88058351 18.3356892 22.47802734 23.15625 C17.54441399 27.93673833 11.52527955 31.82490682 5 34 C5 33.34 5 32.68 5 32 C5.66 32 6.32 32 7 32 C7 31.34 7 30.68 7 30 C7.99 29.67 8.98 29.34 10 29 C10.9590625 28.01 10.9590625 28.01 11.9375 27 C14.12799274 24.87588582 15.15510557 24.68669866 18 24 C18.495 22.515 18.495 22.515 19 21 C20.32 20.67 21.64 20.34 23 20 C23 13.73 23 7.46 23 1 C15.74 1 8.48 1 1 1 C1 4.3 1 7.6 1 11 C-1.31607259 13.31607259 -2.70655091 14.56017389 -5.4375 16.0625 C-6.35015625 16.56716797 -6.35015625 16.56716797 -7.28125 17.08203125 C-9.17060187 18.09111691 -11.06888137 19.07306306 -13 20 C-13 20.66 -13 21.32 -13 22 C-17.15267176 25.11450382 -17.15267176 25.11450382 -20.3125 24.6875 C-20.869375 24.460625 -21.42625 24.23375 -22 24 C-20.47826172 23.17242187 -20.47826172 23.17242187 -18.92578125 22.328125 C-15.06474259 20.1229284 -11.64870387 17.52865609 -8.1875 14.75 C-2.27001404 10 -2.27001404 10 0 10 C0 6.7 0 3.4 0 0 Z " fill="#A25E3F" transform="translate(113,88)"/>
<path d="M0 0 C0.99 0 1.98 0 3 0 C3.02465288 4.68139254 3.04283739 9.36274759 3.05493164 14.04418945 C3.05997157 15.63794614 3.0668035 17.23169819 3.07543945 18.82543945 C3.08751999 21.11150253 3.09323155 23.39750467 3.09765625 25.68359375 C3.10281754 26.40026718 3.10797882 27.11694061 3.11329651 27.85533142 C3.11349263 29.57063672 3.06192007 31.28581266 3 33 C1.41062444 34.58937556 -0.23899846 34.12981143 -2.4375 34.1328125 C-3.77941406 34.13474609 -3.77941406 34.13474609 -5.1484375 34.13671875 C-6.08945313 34.13285156 -7.03046875 34.12898438 -8 34.125 C-9.41152344 34.13080078 -9.41152344 34.13080078 -10.8515625 34.13671875 C-11.74617188 34.13542969 -12.64078125 34.13414062 -13.5625 34.1328125 C-14.38878906 34.13168457 -15.21507813 34.13055664 -16.06640625 34.12939453 C-18 34 -18 34 -19 33 C-19.20739432 30.04611239 -19.32460886 27.14454382 -19.375 24.1875 C-19.41238281 23.36701172 -19.44976562 22.54652344 -19.48828125 21.70117188 C-19.52243616 19.36156049 -19.49036841 17.28931677 -19 15 C-16.4765625 12.42578125 -16.4765625 12.42578125 -14 11 C-13.67 11.66 -13.34 12.32 -13 13 C-13.99 13.66 -14.98 14.32 -16 15 C-16.38588788 17.95160043 -16.60278493 20.66682652 -16.6875 23.625 C-16.790625 26.38875 -16.89375 29.1525 -17 32 C-10.73 32 -4.46 32 2 32 C2 21.77 2 11.54 2 1 C1.34 0.67 0.68 0.34 0 0 Z " fill="#B77B52" transform="translate(134,116)"/>
<path d="M0 0 C0.99 0.66 1.98 1.32 3 2 C2.71180351 5.45835793 2.21034962 6.78380733 -0.25 9.3125 C-3.22568533 11.13848873 -4.58591823 11.55363488 -8 11 C-10 9 -10 9 -10.375 6.0625 C-10 3 -10 3 -8.375 1.125 C-5.36153511 -0.30243074 -3.30063438 -0.35113132 0 0 Z " fill="#DD7A37" transform="translate(447,60)"/>
<path d="M0 0 C3.84968002 0.58543521 5.94790382 2.38560045 8.875 4.875 C12.45557792 7.83424234 15.79795679 9.99902704 20 12 C21.35432675 13.31200404 22.68733482 14.64631404 24 16 C27.00975577 18.14982555 29.48826767 19.82942256 33 21 C33 21.66 33 22.32 33 23 C34.051875 22.54625 35.10375 22.0925 36.1875 21.625 C39.10825453 20.37239999 42.04294668 19.16489979 45 18 C45 17.34 45 16.68 45 16 C45.99 16.33 46.98 16.66 48 17 C46.28526178 18.37239118 44.55257992 19.72238561 42.8125 21.0625 C41.84957031 21.81660156 40.88664062 22.57070312 39.89453125 23.34765625 C37 25 37 25 34.5390625 25.0234375 C31.18178389 23.67019597 28.43391599 21.72234296 25.5625 19.5625 C24.32710733 18.65456081 23.09142126 17.74702071 21.85546875 16.83984375 C21.22302246 16.37175293 20.59057617 15.90366211 19.93896484 15.42138672 C18.01245117 14.00912751 16.06795878 12.62686386 14.11328125 11.25390625 C13.48671631 10.81296631 12.86015137 10.37202637 12.21459961 9.91772461 C11.01765771 9.07660883 9.81932267 8.23747089 8.61938477 7.40063477 C5.45486706 5.16036307 2.65051947 2.83153056 0 0 Z " fill="#C4924E" transform="translate(57,115)"/>
<path d="M0 0 C0.66 0 1.32 0 2 0 C2.33 4.62 2.66 9.24 3 14 C4.98 14.66 6.96 15.32 9 16 C11.41726104 17.22201019 13.67399634 18.60439781 16 20 C16 20.99 16 21.98 16 23 C16.61875 23.309375 17.2375 23.61875 17.875 23.9375 C19.25 24.625 20.625 25.3125 22 26 C22 23.36 22 20.72 22 18 C22.33 18 22.66 18 23 18 C23 20.97 23 23.94 23 27 C18.67472627 27 18.01027096 26.63780294 14.70703125 24.19140625 C13.91232422 23.60939453 13.11761719 23.02738281 12.29882812 22.42773438 C11.47833984 21.81220703 10.65785156 21.19667969 9.8125 20.5625 C8.98041016 19.95083984 8.14832031 19.33917969 7.29101562 18.70898438 C1.2625922 14.2625922 1.2625922 14.2625922 0 13 C-0.07258946 10.81360547 -0.08373783 8.62499611 -0.0625 6.4375 C-0.05347656 5.23996094 -0.04445312 4.04242188 -0.03515625 2.80859375 C-0.02355469 1.88175781 -0.01195312 0.95492187 0 0 Z " fill="#C07141" transform="translate(47,61)"/>
<path d="M0 0 C2.18425704 3.92466012 2.1930193 7.22434131 2.0625 11.625 C1.68915792 23.16664458 1.68915792 23.16664458 5 34 C5.125 36.75 5.125 36.75 5 39 C5.66 39 6.32 39 7 39 C7.69906942 40.59915881 8.38389468 42.20455045 9.0625 43.8125 C9.63677734 45.15248047 9.63677734 45.15248047 10.22265625 46.51953125 C11 49 11 49 10 52 C8.69523021 49.52700609 7.40634614 47.04760211 6.125 44.5625 C5.57779297 43.53092773 5.57779297 43.53092773 5.01953125 42.47851562 C0.02524907 32.71696408 -0.27515019 23.80028886 -0.125 12.9375 C-0.11597656 11.69033203 -0.10695313 10.44316406 -0.09765625 9.15820312 C-0.07426209 6.10526496 -0.04148174 3.05273694 0 0 Z " fill="#D3A947" transform="translate(17,93)"/>
<path d="M0 0 C0.33 0 0.66 0 1 0 C1.04898437 1.12277344 1.09796875 2.24554688 1.1484375 3.40234375 C1.64123788 14.83758711 1.64123788 14.83758711 4 26 C4.23976563 26.80179688 4.47953125 27.60359375 4.7265625 28.4296875 C5.86708642 32.03558635 6.88339556 34.82509334 9 38 C9 38.99 9 39.98 9 41 C8.34 41 7.68 41 7 41 C4.20154273 35.65749067 2 31.09579953 2 25 C1.34 25 0.68 25 0 25 C-1.86170213 7.21409574 -1.86170213 7.21409574 0 0 Z " fill="#C7AA6A" transform="translate(25,98)"/>
<path d="M0 0 C5.625 1.125 5.625 1.125 8 4 C6.02 4 4.04 4 2 4 C2 11.59 2 19.18 2 27 C1.34 27 0.68 27 0 27 C0 18.09 0 9.18 0 0 Z " fill="#C18C4A" transform="translate(47,82)"/>
<path d="M0 0 C0.33 0 0.66 0 1 0 C3.54266391 17.39768885 3.54266391 17.39768885 -0.52197266 23.15625 C-5.45558601 27.93673833 -11.47472045 31.82490682 -18 34 C-18 33.34 -18 32.68 -18 32 C-17.34 32 -16.68 32 -16 32 C-16 31.34 -16 30.68 -16 30 C-15.01 29.67 -14.02 29.34 -13 29 C-12.360625 28.34 -11.72125 27.68 -11.0625 27 C-8.87200726 24.87588582 -7.84489443 24.68669866 -5 24 C-4.67 23.01 -4.34 22.02 -4 21 C-2.68 20.67 -1.36 20.34 0 20 C0 13.4 0 6.8 0 0 Z " fill="#B0684A" transform="translate(136,88)"/>
<path d="M0 0 C2.5 1.3125 2.5 1.3125 5 3 C5 3.99 5 4.98 5 6 C5.66 6 6.32 6 7 6 C11 10.47058824 11 10.47058824 11 13 C11.66 13 12.32 13 13 13 C13.69965443 14.26418246 14.38434763 15.53665402 15.0625 16.8125 C15.44535156 17.52019531 15.82820312 18.22789063 16.22265625 18.95703125 C17 21 17 21 16 24 C15.59910156 23.32195312 15.19820312 22.64390625 14.78515625 21.9453125 C10.96337644 15.68833966 6.83558524 10.35178716 1.72265625 5.09375 C0 3 0 3 0 0 Z " fill="#B9502D" transform="translate(135,51)"/>
<path d="M0 0 C0.33 0 0.66 0 1 0 C2.02774371 6.60692384 -0.66224582 10.18215758 -4.37109375 15.546875 C-6.13634705 17.97347082 -6.13634705 17.97347082 -7 21 C-7.66 21 -8.32 21 -9 21 C-9.268125 21.598125 -9.53625 22.19625 -9.8125 22.8125 C-10.98493467 24.97224808 -12.19369282 26.35790256 -14 28 C-14.66 27.67 -15.32 27.34 -16 27 C-15.36384766 26.34257812 -15.36384766 26.34257812 -14.71484375 25.671875 C-7.96490834 18.37304374 -2.01952506 9.87323361 0 0 Z " fill="#AE7148" transform="translate(154,125)"/>
<path d="M0 0 C0.66 0.66 1.32 1.32 2 2 C1.66690547 9.3793249 -0.52985911 19.20531356 -5.62890625 24.78125 C-6.08136719 25.1834375 -6.53382813 25.585625 -7 26 C-6.37421177 22.40655627 -5.39066052 19.20557424 -4.0625 15.8125 C-2.11861588 10.60995924 -0.90206951 5.47176371 0 0 Z " fill="#B4663D" transform="translate(165,115)"/>
<path d="M0 0 C0.33 0 0.66 0 1 0 C1.0582462 3.72910066 1.09367917 7.45808364 1.125 11.1875 C1.14175781 12.24259766 1.15851563 13.29769531 1.17578125 14.38476562 C1.18222656 15.40634766 1.18867188 16.42792969 1.1953125 17.48046875 C1.20578613 18.41785889 1.21625977 19.35524902 1.22705078 20.32104492 C0.97854186 23.25318293 0.31721368 25.37510929 -1 28 C-1.66 28.33 -2.32 28.66 -3 29 C-2.125 21.375 -2.125 21.375 -1 18 C-0.85507877 16.59335074 -0.75371069 15.1818867 -0.68359375 13.76953125 C-0.64169922 12.96708984 -0.59980469 12.16464844 -0.55664062 11.33789062 C-0.51732422 10.50451172 -0.47800781 9.67113281 -0.4375 8.8125 C-0.39431641 7.96751953 -0.35113281 7.12253906 -0.30664062 6.25195312 C-0.20068482 4.16815567 -0.0998498 2.08409897 0 0 Z " fill="#A45A39" transform="translate(158,98)"/>
<path d="M0 0 C4.35236753 0.65944963 7.97205697 2.26381766 12 4 C13.28645221 4.37266274 14.57818707 4.72766715 15.875 5.0625 C17.421875 5.5265625 17.421875 5.5265625 19 6 C19.33 6.66 19.66 7.32 20 8 C12.34167083 7.70544888 6.65738822 4.62827658 0 1 C0 0.67 0 0.34 0 0 Z " fill="#CBB05B" transform="translate(56,171)"/>
<path d="M0 0 C-3.7408232 2.4028134 -7.45510128 4.03353714 -11.625 5.5625 C-15.10070007 6.8390443 -17.91262362 7.94174908 -21 10 C-21.99 9.67 -22.98 9.34 -24 9 C-18.66666667 6.33333333 -13.33333333 3.66666667 -8 1 C-7.30616211 0.62214355 -6.61232422 0.24428711 -5.89746094 -0.14501953 C-3.52656244 -1.21332712 -2.39992692 -0.85711676 0 0 Z " fill="#B36E45" transform="translate(76,30)"/>
<path d="M0 0 C3 0 3 0 4.5 1.1875 C6 3 6 3 7.4375 5.4375 C8.9147177 8.08650938 8.9147177 8.08650938 11.1875 10.1875 C11.785625 10.785625 12.38375 11.38375 13 12 C13 12.66 13 13.32 13 14 C13.99 14 14.98 14 16 14 C15.67 14.99 15.34 15.98 15 17 C8.84839808 12.52610769 3.57760955 6.73432386 0 0 Z " fill="#D0B155" transform="translate(28,146)"/>
<path d="M0 0 C1.546875 0.00580078 1.546875 0.00580078 3.125 0.01171875 C5.92633186 0.30479287 7.61170203 0.87148368 10 2.3125 C3.28837062 3.19271369 -3.23405981 3.42631955 -10 3.3125 C-6.68395911 0.29139544 -4.43529625 -0.07207356 0 0 Z " fill="#9E4627" transform="translate(83,27.6875)"/>
<path d="M0 0 C2.475 0.99 2.475 0.99 5 2 C5 2.99 5 3.98 5 5 C5.928125 5.4640625 5.928125 5.4640625 6.875 5.9375 C8.25 6.625 9.625 7.3125 11 8 C11 5.36 11 2.72 11 0 C11.33 0 11.66 0 12 0 C12 2.97 12 5.94 12 9 C7.39503026 9 6.35888432 8.15917792 2.75 5.5 C1.85796875 4.8503125 0.9659375 4.200625 0.046875 3.53125 C-0.62859375 3.0259375 -1.3040625 2.520625 -2 2 C-1.34 1.34 -0.68 0.68 0 0 Z " fill="#B6784B" transform="translate(58,79)"/>
<path d="M0 0 C0.99 0.33 1.98 0.66 3 1 C2.0453859 3.27246186 1.08648542 5.5429472 0.125 7.8125 C-0.14441406 8.45509766 -0.41382813 9.09769531 -0.69140625 9.75976562 C-1.94695731 12.71490408 -3.21277178 15.31915767 -5 18 C-5.22316078 14.0946863 -4.51847822 11.57288993 -3 8 C-2.63128912 6.34080104 -2.28718326 4.6752357 -2 3 C-1.34 3 -0.68 3 0 3 C0 2.01 0 1.02 0 0 Z " fill="#C28E49" transform="translate(31,71)"/>
<path d="M0 0 C1.93742341 -0.02703381 3.87495479 -0.04641125 5.8125 -0.0625 C6.89144531 -0.07410156 7.97039062 -0.08570312 9.08203125 -0.09765625 C12 0 12 0 15 1 C15 1.66 15 2.32 15 3 C17.31 3 19.62 3 22 3 C22 3.33 22 3.66 22 4 C14.37404682 4.45755719 7.3970146 2.74536299 0 1 C0 0.67 0 0.34 0 0 Z " fill="#B25E40" transform="translate(83,27)"/>
<path d="M0 0 C3.77548716 1.33882523 6.61387689 3.01635888 9.75 5.5 C10.52859375 6.1084375 11.3071875 6.716875 12.109375 7.34375 C14 9 14 9 15 11 C13.68 11 12.36 11 11 11 C9.66104368 9.33784732 8.32869858 7.67036393 7 6 C4.7362593 4.46965261 2.43218102 3.26286322 0 2 C0 1.34 0 0.68 0 0 Z " fill="#AF4E32" transform="translate(128,38)"/>
<path d="M0 0 C0.66 0 1.32 0 2 0 C2 0.66 2 1.32 2 2 C2.66 2 3.32 2 4 2 C4.69965443 3.26418246 5.38434763 4.53665402 6.0625 5.8125 C6.63677734 6.87404297 6.63677734 6.87404297 7.22265625 7.95703125 C8 10 8 10 7 13 C5.82786955 11.21190303 4.66244474 9.41940875 3.5 7.625 C2.8503125 6.62726563 2.200625 5.62953125 1.53125 4.6015625 C0 2 0 2 0 0 Z " fill="#A95036" transform="translate(144,62)"/>
<path d="M0 0 C4.30764815 1.56641751 8.06171464 3.68336156 12 6 C11.34 6.66 10.68 7.32 10 8 C8.33055479 6.85821872 6.6645052 5.71147095 5 4.5625 C4.071875 3.92441406 3.14375 3.28632813 2.1875 2.62890625 C1.465625 2.09136719 0.74375 1.55382812 0 1 C0 0.67 0 0.34 0 0 Z " fill="#D0B25A" transform="translate(44,163)"/>
<path d="M0 0 C0.66 0.99 1.32 1.98 2 3 C1.01 3.33 0.02 3.66 -1 4 C-1.33 5.65 -1.66 7.3 -2 9 C-2.66 9 -3.32 9 -4 9 C-4 9.99 -4 10.98 -4 12 C-4.66 11.67 -5.32 11.34 -6 11 C-4.02 7.37 -2.04 3.74 0 0 Z " fill="#CA9A5A" transform="translate(27,64)"/>
<path d="M0 0 C3.59930552 2.62652025 6.07666989 4.93963643 8 9 C7.67 9.66 7.34 10.32 7 11 C5.82750647 9.54634731 4.66216184 8.08692581 3.5 6.625 C2.52546875 5.40683594 2.52546875 5.40683594 1.53125 4.1640625 C0 2 0 2 0 0 Z " fill="#98462D" transform="translate(148,54)"/>
<path d="M0 0 C-3.66291938 2.47785723 -6.6109185 3.48964169 -11 4 C-7.64918101 0.31409911 -4.96535219 -1.77334007 0 0 Z " fill="#A65E42" transform="translate(76,30)"/>
<path d="M0 0 C2.64752004 2.57784846 4.94432065 4.91648098 7 8 C4.24542282 7.62005832 3.17979426 7.1926367 1.25 5.125 C0 3 0 3 0 0 Z " fill="#D1B35D" transform="translate(37,143)"/>
<path d="M0 0 C6.52307692 1.47692308 6.52307692 1.47692308 8.9375 4.125 C9.288125 4.74375 9.63875 5.3625 10 6 C6.00452264 5.38531118 3.22493358 3.34540624 0 1 C0 0.67 0 0.34 0 0 Z " fill="#B07140" transform="translate(48,74)"/>
<path d="M0 0 C0.33 0.66 0.66 1.32 1 2 C-1.45614035 7 -1.45614035 7 -3 9 C-3.99 9.33 -4.98 9.66 -6 10 C-4.6302836 6.00499382 -2.74277578 3.19990508 0 0 Z " fill="#BE884F" transform="translate(34,54)"/>
<path d="M0 0 C0 3 0 3 -1.75 5.25 C-2.86375 6.11625 -2.86375 6.11625 -4 7 C-5.32 6.67 -6.64 6.34 -8 6 C-5.36 4.02 -2.72 2.04 0 0 Z " fill="#B98851" transform="translate(134,155)"/>
<path d="M0 0 C1.98 0 3.96 0 6 0 C6.66 1.32 7.32 2.64 8 4 C5.64828869 3.40138258 3.3140622 2.73075648 1 2 C0.67 1.34 0.34 0.68 0 0 Z " fill="#B75F3F" transform="translate(109,39)"/>
</svg>
